<svg width="27" height="27" viewBox="0 0 27 27" fill="none" xmlns="http://www.w3.org/2000/svg">
<g clip-path="url(#clip0_222_814)">
<mask id="mask0_222_814" style="mask-type:luminance" maskUnits="userSpaceOnUse" x="0" y="0" width="27" height="27">
<path d="M26.7823 0H0.300781V26.4816H26.7823V0Z" fill="white"/>
</mask>
<g mask="url(#mask0_222_814)">
<path fill-rule="evenodd" clip-rule="evenodd" d="M13.5416 26.4816C20.8542 26.4816 26.7823 20.5534 26.7823 13.2408C26.7823 5.92816 20.8542 0 13.5416 0C6.22894 0 0.300781 5.92816 0.300781 13.2408C0.300781 20.5534 6.22894 26.4816 13.5416 26.4816ZM18.2818 8.63988C19.2981 8.7315 19.8707 9.35355 19.9962 10.3448C20.0841 11.0365 20.162 12.0269 20.162 13.0922C20.162 14.9629 19.9962 16.0444 19.9962 16.0444C19.8405 17.0316 19.3633 17.5676 18.3596 17.6809C17.2381 17.8081 14.7158 17.8663 13.5951 17.8663C12.4352 17.8663 10.0897 17.8176 8.91841 17.7201C7.91211 17.6362 7.22518 17.074 7.08695 16.0735C6.98632 15.3447 6.92117 14.4788 6.92117 13.1018C6.92117 11.569 6.97652 10.9202 7.10654 10.2277C7.29165 9.23942 7.76329 8.76063 8.84056 8.64941C9.97079 8.53263 11.0391 8.4741 13.4295 8.4741C14.5982 8.4741 17.1179 8.53448 18.2818 8.63988ZM12.1338 11.2247V15.0312L15.7581 13.1084L12.1338 11.2247Z" fill="white" fill-opacity="0.8"/>
</g>
</g>
<defs>
<clipPath id="clip0_222_814">
<rect width="26.4816" height="26.4816" fill="white" transform="translate(0.300781)"/>
</clipPath>
</defs>
</svg>
