<svg width="28" height="27" viewBox="0 0 28 27" fill="none" xmlns="http://www.w3.org/2000/svg">
<g clip-path="url(#clip0_222_820)">
<mask id="mask0_222_820" style="mask-type:luminance" maskUnits="userSpaceOnUse" x="0" y="0" width="28" height="27">
<path d="M27.2325 0H0.750977V26.4816H27.2325V0Z" fill="white"/>
</mask>
<g mask="url(#mask0_222_820)">
<path fill-rule="evenodd" clip-rule="evenodd" d="M13.9918 26.4816C21.3045 26.4816 27.2325 20.5535 27.2325 13.2408C27.2325 5.92811 21.3045 0 13.9918 0C6.67909 0 0.750977 5.92811 0.750977 13.2408C0.750977 20.5535 6.67909 26.4816 13.9918 26.4816ZM20.0825 18.2722V13.8665C20.0825 11.5067 18.8223 10.4084 17.1409 10.4084C15.7842 10.4084 15.178 11.1552 14.8386 11.678V10.589H12.284C12.3183 11.3102 12.284 18.2722 12.284 18.2722H14.8391V13.9814C14.8391 13.7517 14.8565 13.523 14.9238 13.3588C15.1088 12.8993 15.5287 12.4244 16.2345 12.4244C17.1588 12.4244 17.5283 13.129 17.5283 14.1615V18.2722H20.0825ZM14.8386 11.678V11.7029H14.8219C14.8237 11.7 14.8258 11.6968 14.828 11.6937C14.8316 11.6885 14.8354 11.6831 14.8386 11.678ZM8.16581 8.21254C8.16581 7.45848 8.73737 6.88521 9.61144 6.88521C10.4858 6.88521 11.023 7.45848 11.0398 8.21254C11.0398 8.95006 10.4858 9.54078 9.59467 9.54078H9.57776C8.72105 9.54078 8.16581 8.95006 8.16581 8.21254ZM10.8716 18.2722H8.31761V10.589H10.8716V18.2722Z" fill="white" fill-opacity="0.8"/>
</g>
</g>
<defs>
<clipPath id="clip0_222_820">
<rect width="26.4816" height="26.4816" fill="white" transform="translate(0.750977)"/>
</clipPath>
</defs>
</svg>
