<svg width="25" height="24" viewBox="0 0 25 24" fill="none" xmlns="http://www.w3.org/2000/svg">
<path fill-rule="evenodd" clip-rule="evenodd" d="M12.6848 0.804443C19.1446 0.804443 24.3892 5.96353 24.3892 12.3181C24.3892 18.6726 19.1446 23.8317 12.6848 23.8317C6.22503 23.8317 0.980469 18.6726 0.980469 12.3181C0.980469 5.96353 6.22503 0.804443 12.6848 0.804443ZM12.6848 5.12205C10.6982 5.12205 10.449 5.13032 9.66876 5.16536C8.89015 5.2003 8.35838 5.32196 7.89304 5.49984C7.41202 5.68374 7.00406 5.9298 6.59737 6.32985C6.19069 6.7299 5.94056 7.13122 5.75361 7.6044C5.57279 8.06211 5.44916 8.58521 5.41359 9.35114C5.37802 10.1187 5.36961 10.3638 5.36961 12.3181C5.36961 14.2724 5.37802 14.5174 5.41359 15.285C5.44916 16.0509 5.57279 16.574 5.75361 17.0317C5.94056 17.5049 6.19069 17.9062 6.59737 18.3063C7.00406 18.7064 7.41202 18.9524 7.89304 19.1363C8.35838 19.3141 8.89015 19.4358 9.66876 19.4707C10.449 19.5058 10.6982 19.5141 12.6848 19.5141C14.6715 19.5141 14.9206 19.5058 15.7009 19.4707C16.4795 19.4358 17.0113 19.3141 17.4766 19.1363C17.9576 18.9524 18.3656 18.7064 18.7723 18.3063C19.179 17.9062 19.4291 17.5049 19.6161 17.0317C19.7968 16.574 19.9205 16.0509 19.956 15.285C19.9916 14.5174 20.0001 14.2724 20.0001 12.3181C20.0001 10.3638 19.9916 10.1187 19.956 9.35114C19.9205 8.58521 19.7968 8.06211 19.6161 7.6044C19.4291 7.13122 19.179 6.7299 18.7723 6.32985C18.3656 5.9298 17.9576 5.68374 17.4766 5.49984C17.0113 5.32196 16.4795 5.2003 15.7009 5.16536C14.9206 5.13032 14.6715 5.12205 12.6848 5.12205ZM12.6848 6.41863C14.6381 6.41863 14.8694 6.42596 15.6408 6.46059C16.3541 6.49262 16.7414 6.60982 16.9991 6.70836C17.3406 6.83888 17.5843 6.99485 17.8402 7.24667C18.0963 7.49844 18.2548 7.7382 18.3875 8.07407C18.4876 8.32764 18.6068 8.70863 18.6393 9.41024C18.6745 10.1691 18.682 10.3966 18.682 12.3181C18.682 14.2395 18.6745 14.4671 18.6393 15.2259C18.6068 15.9275 18.4876 16.3085 18.3875 16.562C18.2548 16.898 18.0963 17.1377 17.8402 17.3894C17.5843 17.6413 17.3406 17.7972 16.9991 17.9277C16.7414 18.0263 16.3541 18.1435 15.6408 18.1755C14.8696 18.2101 14.6382 18.2175 12.6848 18.2175C10.7314 18.2175 10.5001 18.2101 9.72884 18.1755C9.01561 18.1435 8.62831 18.0263 8.37054 17.9277C8.02906 17.7972 7.78537 17.6413 7.52938 17.3894C7.27339 17.1377 7.11488 16.898 6.9822 16.562C6.88203 16.3085 6.76284 15.9275 6.73028 15.2259C6.69508 14.4671 6.68767 14.2395 6.68767 12.3181C6.68767 10.3966 6.69508 10.1691 6.73028 9.41024C6.76284 8.70863 6.88203 8.32764 6.9822 8.07407C7.11488 7.7382 7.27339 7.49844 7.52938 7.24667C7.78537 6.99485 8.02906 6.83888 8.37054 6.70836C8.62831 6.60982 9.01561 6.49262 9.72884 6.46059C10.5002 6.42596 10.7316 6.41863 12.6848 6.41863ZM12.6848 8.62281C10.6102 8.62281 8.92837 10.2772 8.92837 12.3181C8.92837 14.3589 10.6102 16.0133 12.6848 16.0133C14.7595 16.0133 16.4413 14.3589 16.4413 12.3181C16.4413 10.2772 14.7595 8.62281 12.6848 8.62281ZM12.6848 14.7167C11.3381 14.7167 10.2464 13.6428 10.2464 12.3181C10.2464 10.9933 11.3381 9.9194 12.6848 9.9194C14.0315 9.9194 15.1232 10.9933 15.1232 12.3181C15.1232 13.6428 14.0315 14.7167 12.6848 14.7167ZM17.4676 8.47682C17.4676 8.95374 17.0745 9.3403 16.5897 9.3403C16.1049 9.3403 15.7119 8.95374 15.7119 8.47682C15.7119 7.99991 16.1049 7.6133 16.5897 7.6133C17.0745 7.6133 17.4676 7.99991 17.4676 8.47682Z" fill="white" fill-opacity="0.9"/>
</svg>
