<svg width="23" height="23" viewBox="0 0 23 23" fill="none" xmlns="http://www.w3.org/2000/svg">
<g clip-path="url(#clip0_222_778)">
<mask id="mask0_222_778" style="mask-type:luminance" maskUnits="userSpaceOnUse" x="0" y="0" width="23" height="23">
<path d="M23 0H0V23H23V0Z" fill="white"/>
</mask>
<g mask="url(#mask0_222_778)">
<path fill-rule="evenodd" clip-rule="evenodd" d="M11.5 23C17.8512 23 23 17.8512 23 11.5C23 5.14878 17.8512 0 11.5 0C5.14878 0 0 5.14878 0 11.5C0 17.8512 5.14878 23 11.5 23ZM15.617 7.50398C16.4997 7.58356 16.997 8.12383 17.106 8.98472C17.1824 9.58548 17.25 10.4457 17.25 11.371C17.25 12.9957 17.106 13.935 17.106 13.935C16.9708 14.7924 16.5563 15.258 15.6846 15.3564C14.7106 15.4668 12.5198 15.5174 11.5465 15.5174C10.5391 15.5174 8.50195 15.4751 7.48466 15.3904C6.61066 15.3175 6.01404 14.8293 5.89398 13.9603C5.80658 13.3274 5.75 12.5752 5.75 11.3792C5.75 10.048 5.79807 9.48451 5.911 8.88306C6.07177 8.0247 6.4814 7.60886 7.41704 7.51226C8.39868 7.41083 9.3265 7.36 11.4027 7.36C12.4177 7.36 14.6062 7.41244 15.617 7.50398ZM10.2773 9.74901V13.055L13.4251 11.385L10.2773 9.74901Z" fill="white"/>
</g>
</g>
<defs>
<clipPath id="clip0_222_778">
<rect width="23" height="23" fill="white"/>
</clipPath>
</defs>
</svg>
