<svg width="23" height="23" viewBox="0 0 23 23" fill="none" xmlns="http://www.w3.org/2000/svg">
<g clip-path="url(#clip0_222_784)">
<mask id="mask0_222_784" style="mask-type:luminance" maskUnits="userSpaceOnUse" x="0" y="0" width="23" height="23">
<path d="M23 0H0V23H23V0Z" fill="white"/>
</mask>
<g mask="url(#mask0_222_784)">
<path fill-rule="evenodd" clip-rule="evenodd" d="M11.5 23C17.8513 23 23 17.8513 23 11.5C23 5.14873 17.8513 0 11.5 0C5.14873 0 0 5.14873 0 11.5C0 17.8513 5.14873 23 11.5 23ZM16.79 15.8699V12.0435C16.79 9.99388 15.6955 9.04 14.2352 9.04C13.0568 9.04 12.5303 9.6886 12.2355 10.1427V9.19686H10.0167C10.0466 9.82322 10.0167 15.8699 10.0167 15.8699H12.2359V12.1432C12.2359 11.9437 12.251 11.7451 12.3095 11.6025C12.4701 11.2034 12.8348 10.7909 13.4479 10.7909C14.2506 10.7909 14.5716 11.4029 14.5716 12.2997V15.8699H16.79ZM12.2355 10.1427V10.1643H12.221C12.2226 10.1618 12.2244 10.159 12.2263 10.1563C12.2294 10.1518 12.2327 10.1471 12.2355 10.1427ZM6.44 7.13283C6.44 6.4779 6.93641 5.98 7.69557 5.98C8.45495 5.98 8.92155 6.4779 8.93611 7.13283C8.93611 7.77339 8.45495 8.28644 7.681 8.28644H7.66631C6.92224 8.28644 6.44 7.77339 6.44 7.13283ZM8.79006 15.8699H6.57184V9.19686H8.79006V15.8699Z" fill="white"/>
</g>
</g>
<defs>
<clipPath id="clip0_222_784">
<rect width="23" height="23" fill="white"/>
</clipPath>
</defs>
</svg>
