<svg width="23" height="23" viewBox="0 0 23 23" fill="none" xmlns="http://www.w3.org/2000/svg">
<g clip-path="url(#clip0_222_776)">
<path fill-rule="evenodd" clip-rule="evenodd" d="M11.5 23C17.8513 23 23 17.8513 23 11.5C23 5.14873 17.8513 0 11.5 0C5.14873 0 0 5.14873 0 11.5C0 17.8513 5.14873 23 11.5 23ZM12.2891 5.98336C11.7104 5.99948 11.0998 6.13879 10.6685 6.54863C10.3122 6.87813 10.1328 7.3577 10.0924 7.83709C10.0802 8.17997 10.0819 8.52376 10.0837 8.8674C10.085 9.12511 10.0863 9.38276 10.0817 9.6399C9.92328 9.64105 9.76437 9.64073 9.6054 9.64038C9.39338 9.63994 9.18126 9.63951 8.97 9.64259C8.97 9.84777 8.9703 10.0533 8.9706 10.2589C8.9712 10.6709 8.97179 11.0835 8.97 11.4963C9.18126 11.4994 9.39341 11.4989 9.60542 11.4985C9.7644 11.4982 9.92328 11.4978 10.0817 11.499C10.0853 12.317 10.0846 13.1349 10.084 13.9529C10.0831 14.9753 10.0823 15.9976 10.0898 17.02C10.5245 17.0169 10.9584 17.0174 11.3923 17.0178C11.7178 17.0181 12.0434 17.0185 12.3694 17.0173C12.3721 16.0971 12.3715 15.1776 12.3708 14.2582C12.3701 13.3386 12.3694 12.4192 12.3721 11.499C12.5914 11.4978 12.8107 11.4982 13.0299 11.4985C13.3223 11.4989 13.6147 11.4994 13.9071 11.4963C13.9982 10.8801 14.0758 10.2586 14.1186 9.63452C13.8294 9.63318 13.5401 9.63318 13.2508 9.63318C12.9615 9.63318 12.6722 9.63318 12.3829 9.63183C12.3829 9.52398 12.3827 9.41613 12.3826 9.30831C12.3821 8.98486 12.3815 8.66148 12.3856 8.33798C12.4311 8.0888 12.6882 7.89859 12.9374 7.91471H14.1213C14.124 7.26913 14.124 6.62625 14.1213 5.98067C13.9687 5.98067 13.8161 5.98051 13.6634 5.98035C13.2053 5.97984 12.7472 5.97933 12.2891 5.98336Z" fill="white" fill-opacity="0.9"/>
</g>
<defs>
<clipPath id="clip0_222_776">
<rect width="23" height="23" fill="white"/>
</clipPath>
</defs>
</svg>
