<svg width="23" height="22" viewBox="0 0 23 22" fill="none" xmlns="http://www.w3.org/2000/svg">
<path d="M11.5 0C5.14872 0 0 4.92486 0 11C0 17.0751 5.14872 22 11.5 22C17.8513 22 23 17.0751 23 11C23 4.92486 17.8513 0 11.5 0ZM17.4773 6.95819L15.4348 16.2852C15.41 16.398 15.3561 16.503 15.2778 16.5907C15.1996 16.6783 15.0996 16.7458 14.987 16.7868C14.8744 16.8279 14.7528 16.8412 14.6334 16.8256C14.514 16.8099 14.4007 16.7658 14.3038 16.6974L11.3328 14.5979L9.53287 16.2221C9.50931 16.2433 9.48156 16.2599 9.45123 16.2708C9.42091 16.2817 9.38862 16.2867 9.35625 16.2855C9.32389 16.2843 9.29209 16.277 9.26271 16.2639C9.23334 16.2509 9.20698 16.2324 9.18518 16.2094L9.1465 16.1688L9.45924 13.2738L15.0962 8.34737C15.1241 8.32304 15.1414 8.28961 15.1448 8.25367C15.1482 8.21772 15.1373 8.18187 15.1144 8.15318C15.0915 8.1245 15.0582 8.10507 15.0211 8.09873C14.9839 8.09238 14.9457 8.09958 14.9138 8.1189L7.70478 12.4832L4.6 11.4858C4.51745 11.4593 4.44549 11.409 4.39402 11.3418C4.34254 11.2746 4.31406 11.1938 4.31249 11.1106C4.31091 11.0273 4.33632 10.9456 4.38522 10.8766C4.43413 10.8077 4.50413 10.7549 4.58563 10.7256L16.7334 6.34838C16.8271 6.31465 16.9286 6.30561 17.0272 6.32222C17.1258 6.33883 17.2179 6.38048 17.2939 6.4428C17.3699 6.50512 17.4271 6.58583 17.4593 6.6765C17.4916 6.76716 17.4978 6.86445 17.4773 6.95819Z" fill="white" fill-opacity="0.9"/>
</svg>
