<svg width="38" height="38" viewBox="0 0 38 38" fill="none" xmlns="http://www.w3.org/2000/svg">
<path d="M38 18.6903C38 14.9937 36.8857 11.3801 34.7979 8.30648C32.7102 5.23287 29.7428 2.83729 26.271 1.42266C22.7992 0.00803245 18.9789 -0.362104 15.2933 0.359068C11.6077 1.08024 8.22218 2.86032 5.56498 5.47421C2.90778 8.0881 1.0982 11.4184 0.365088 15.044C-0.368033 18.6695 0.00823345 22.4275 1.4463 25.8428C2.88436 29.258 5.31963 32.177 8.44417 34.2307C11.5687 36.2844 15.2422 37.3806 19 37.3806C24.0374 37.3753 28.867 35.4044 32.429 31.9004C35.991 28.3965 37.9946 23.6456 38 18.6903ZM13.5945 20.8926C13.0008 20.3085 12.6673 19.5163 12.6673 18.6903C12.6673 17.8643 13.0008 17.0721 13.5945 16.4879L20.9934 9.2096L23.2323 11.4119L15.8333 18.6903L23.2924 26.0293L21.0583 28.2317L13.5945 20.8926Z" fill="white" fill-opacity="0.3"/>
</svg>
