<svg width="38" height="38" viewBox="0 0 38 38" fill="none" xmlns="http://www.w3.org/2000/svg">
<path d="M0 19.2155C0 22.9121 1.11433 26.5257 3.20208 29.5993C5.28982 32.6729 8.25722 35.0685 11.729 36.4831C15.2008 37.8977 19.0211 38.2679 22.7067 37.5467C26.3923 36.8255 29.7778 35.0454 32.435 32.4316C35.0922 29.8177 36.9018 26.4874 37.6349 22.8618C38.368 19.2362 37.9918 15.4782 36.5537 12.063C35.1156 8.64779 32.6804 5.72876 29.5558 3.67504C26.4313 1.62132 22.7578 0.525146 19 0.525146C13.9626 0.530506 9.133 2.50138 5.57099 6.00534C2.00898 9.5093 0.00544838 14.2601 0 19.2155ZM24.4055 17.0131C24.9992 17.5973 25.3327 18.3895 25.3327 19.2155C25.3327 20.0415 24.9992 20.8337 24.4055 21.4178L17.0066 28.6962L14.7677 26.4938L22.1667 19.2155L14.7076 11.8764L16.9417 9.67407L24.4055 17.0131Z" fill="white" fill-opacity="0.3"/>
</svg>
