<svg width="48" height="55" viewBox="0 0 48 55" fill="none" xmlns="http://www.w3.org/2000/svg">
<path d="M23.9994 0C17.8131 0.006683 11.8821 2.42709 7.50769 6.73018C3.13332 11.0333 0.672809 16.8676 0.666016 22.9531C0.666016 35.0769 20.266 51.7201 22.492 53.5793L23.9994 54.8326L25.5067 53.5793C27.7327 51.7201 47.3327 35.0769 47.3327 22.9531C47.3259 16.8676 44.8654 11.0333 40.491 6.73018C36.1166 2.42709 30.1856 0.006683 23.9994 0ZM23.9994 34.4296C21.6919 34.4296 19.4363 33.7565 17.5177 32.4954C15.5991 31.2344 14.1038 29.442 13.2208 27.3449C12.3377 25.2479 12.1067 22.9403 12.5569 20.7141C13.007 18.4879 14.1182 16.4429 15.7498 14.8379C17.3814 13.2329 19.4602 12.1399 21.7233 11.697C23.9864 11.2542 26.3322 11.4815 28.464 12.3501C30.5958 13.2188 32.4179 14.6897 33.6998 16.577C34.9818 18.4643 35.666 20.6832 35.666 22.9531C35.6623 25.9957 34.432 28.9127 32.2448 31.0642C30.0577 33.2156 27.0924 34.4259 23.9994 34.4296Z" fill="white"/>
</svg>
