<svg width="7" height="4" viewBox="0 0 7 4" fill="none" xmlns="http://www.w3.org/2000/svg">
<path d="M0.529218 0L6.47078 0C6.57589 0.000437255 6.6785 0.0317879 6.76565 0.0900878C6.8528 0.148388 6.92057 0.231019 6.96039 0.327532C7.00021 0.424045 7.01029 0.530106 6.98936 0.632304C6.96842 0.734502 6.91742 0.828247 6.84279 0.901685L3.87733 3.84403C3.82792 3.89345 3.76914 3.93268 3.70438 3.95945C3.63962 3.98622 3.57016 4 3.5 4C3.42984 4 3.36038 3.98622 3.29562 3.95945C3.23086 3.93268 3.17208 3.89345 3.12267 3.84403L0.157206 0.901685C0.0825793 0.828247 0.0315759 0.734502 0.0106448 0.632304C-0.0102863 0.530106 -0.000205201 0.424045 0.0396137 0.327532C0.0794326 0.231019 0.147201 0.148388 0.234349 0.0900878C0.321498 0.0317879 0.424112 0.000437255 0.529218 0Z" fill="white" fill-opacity="0.5"/>
</svg>
