<svg width="609" height="524" viewBox="0 0 609 524" fill="none" xmlns="http://www.w3.org/2000/svg">
<g opacity="0.3" clip-path="url(#clip0_222_4)">
<path d="M107.638 416.648V530.022L206.777 586.709L305.917 538.525M107.638 416.648L206.777 359.961M107.638 416.648L8.49805 359.961V246.588L104.805 192.735M121.8 425.151V524.353M305.917 538.525V425.151M305.917 538.525L405.056 595.212L504.196 538.525V425.151M206.777 572.537L294.586 530.022M305.917 425.151L206.777 359.961M305.917 425.151L405.056 368.464M206.777 359.961L203.945 249.422M291.754 433.654L206.777 376.967M405.056 578.206L490.033 530.022M504.196 425.151L600.503 368.464V255.091L504.196 198.404L405.056 255.091V368.464M504.196 425.151L405.056 368.464M203.945 249.422L297.419 181.398M203.945 249.422L104.805 192.735M104.805 192.735V79.3616L203.945 22.6748L297.419 68.0242M22.6608 255.091V354.293M504.196 408.145L586.34 359.961M586.34 263.594L504.196 212.576M419.219 263.594V359.961M297.419 181.398V68.0242M297.419 181.398L396.559 238.085L495.698 181.398V68.0242L396.559 11.3374L297.419 68.0242M201.112 232.416L283.256 172.895M286.089 76.5273L203.945 36.8465M118.968 87.8646V187.067M396.559 221.079L481.535 172.895M481.535 76.5273L396.559 25.5091" stroke="#0076E3" stroke-width="2"/>
</g>
<defs>
<clipPath id="clip0_222_4">
<rect width="609" height="524" fill="white"/>
</clipPath>
</defs>
</svg>
