<svg width="1252" height="764" viewBox="0 0 1252 764" fill="none" xmlns="http://www.w3.org/2000/svg">
<path fill-rule="evenodd" clip-rule="evenodd" d="M605.501 301.949C606.988 300.286 604.386 295.209 609.234 294.588C612.866 294.122 612.765 287.47 615.468 290.22C618.137 292.969 615.89 282.836 618.272 284.677C620.688 286.495 623.324 280.175 625.571 281.905C627.851 283.657 629.49 274.943 632.294 277.736C635.065 280.552 638.275 272.06 640.606 275.719C644.66 282.06 646.637 273.102 650.776 282.437C654.915 291.772 654.205 283.546 657.736 287.005C661.267 290.464 660.962 287.204 669.747 290.22C678.498 293.213 679.309 286.96 680.694 288.645C681.775 289.976 687.857 285.386 681.083 279.776C670.693 271.173 676.994 275.475 678.802 268.934C680.576 262.415 675.103 259.798 677.451 253.9C682.637 255.076 681.606 257.182 696.067 261.173C708.906 264.699 704.582 290.863 723.317 286.362C744.13 281.351 735.649 286.694 744.045 285.719C760.077 283.834 748.404 298.712 768.203 293.878C780.637 290.818 787.073 296.096 799.642 290.087C809.862 285.209 814.035 283.501 827.364 287.825C811.856 299.843 829.24 299.732 820.235 307.293C814.863 311.816 814.103 318.934 828.648 314.61C850.914 307.98 842.737 323.147 853.499 309.577C860.83 300.375 862.74 305.209 877.251 316.894C884.414 322.614 882.032 332.105 876.829 331.639C869.801 331.04 875.866 333.989 869.108 334.255C860.527 334.588 864.716 332.881 860.239 341.639C854.039 353.745 850.863 341.905 848.616 351.949C845.153 367.626 838.227 349.355 836.115 357.825C834.73 363.479 836.453 364.233 842.805 366.051C849.174 367.892 845.778 385.12 839.004 384.499C834.916 384.122 837.416 395.83 825.253 394.389C799.676 391.373 805.758 408.845 780.738 400.974C754.046 392.57 767.51 389 755.955 388.69C748.657 388.491 746.191 383.657 739.687 387.382C733.385 390.996 727.777 385.009 722.455 386.983C716.677 389.133 716.086 382.859 709.515 391.484C704.666 397.825 709.126 381.439 704.464 377.847C699.852 374.255 703.247 367.87 700.139 368.779C697.064 369.688 699.717 359.887 696.963 365.12C693.854 370.996 677.332 359.51 677.163 359.377C670.068 353.901 665.879 357.67 653.597 359.244C641.349 360.796 653.529 357.759 649.171 350.109C645.539 343.701 652.11 344.61 646.434 339.799C637.463 332.171 642.599 323.546 635.284 319.821C629.608 316.96 632.176 317.071 630.993 315.586C625.52 308.712 626.111 323.368 619.911 314.344C613.677 305.342 610.349 312.77 605.721 302.725L605.501 301.949Z" fill="#182F67"/>
<path fill-rule="evenodd" clip-rule="evenodd" d="M1015.54 392.971C1018.62 393.725 1021.32 379.357 1023.82 389.047C1027.45 403.149 1048.01 362.329 1045.14 337.872C1043.52 324.302 1051.93 293.127 1038.42 285.965C1017.27 274.789 1040.88 268.936 1028.16 258.492C1015.42 248.049 1013.03 239.18 998.666 231.863C984.34 224.568 993.091 239.712 985.134 235.011C977.144 230.311 980.742 240.754 974.373 231.863C968.004 222.993 987.111 219.845 973.292 217.184C959.439 214.501 983.546 228.736 961.314 225.211C951.719 223.681 956.854 207.849 963.595 193.481C973.495 172.328 961.129 174.944 977.161 166.607C998.278 155.632 994.324 172.86 1016.25 166.341C1038.23 159.823 1030.14 166.607 1037.93 164.967C1058.32 160.687 1032.94 180.687 1050.66 174.235C1060.77 170.554 1073.17 171.818 1063.72 163.259C1054.25 154.701 1065.01 161.375 1064.55 147.029C1064.13 132.661 1066.21 143.37 1070.19 138.226C1074.15 133.06 1075.97 139.468 1081.24 132.993C1086.51 126.519 1079.72 133.703 1092.29 142.993C1105.16 152.505 1099.45 141.907 1103.54 139.601C1110.21 135.809 1096.48 131.109 1106.94 127.849C1117.36 124.59 1116.97 127.206 1111.68 130.199C1106.41 133.193 1115.18 142.328 1118.98 144.434C1122.78 146.541 1112.61 153.06 1115.38 161.153C1117.66 167.694 1107.53 179.601 1109.18 182.816C1111.68 187.783 1104.23 184.39 1108.04 191.619C1114.13 203.348 1105.43 197.162 1110.11 204.878C1122.95 225.965 1128.16 222.483 1138.75 234.701C1149.37 246.896 1163.99 254.59 1171.5 265.122C1179.02 275.654 1178.53 266.364 1177.77 256.452C1177.05 246.519 1171.96 242.594 1176.74 241.574C1181.52 240.532 1176.94 239.734 1172.69 230.599C1168.46 221.463 1178.33 227.982 1174.34 217.339C1170.36 206.696 1171.37 217.273 1166.49 207.871C1161.6 198.47 1165.76 199.446 1166.28 201.929C1166.77 204.412 1173.55 197.96 1162.79 192.927C1152.03 187.916 1163.18 182.018 1153.02 180.665C1140.32 178.958 1151.64 182.306 1147.25 184.124C1142.85 185.942 1140.71 172.439 1140.28 168.204C1139.83 163.947 1129.93 157.517 1141.33 158.736C1151.62 159.845 1140.01 154.523 1148.02 152.616C1157.58 150.332 1154 172.905 1157.55 154.9C1159.83 143.259 1170.12 148.625 1176.56 152.993C1182.99 157.383 1181.27 148.891 1184.97 147.184C1188.67 145.499 1200.02 122.771 1206.15 126.696C1210.31 129.357 1215.56 119.911 1205.19 118.802C1194.83 117.694 1192.86 111.84 1187.08 111.375C1181.27 110.909 1178.3 102.439 1174.8 108.448C1172.69 112.128 1163.75 102.971 1180.27 102.439C1196.81 101.929 1191.03 94.3457 1188.06 93.0597C1181.3 90.1107 1194.4 84.257 1195.71 92.1284C1198.03 105.853 1206.96 95.1439 1203.89 101.596C1201.42 106.763 1215.44 98.5363 1218.5 103.481C1226.29 116.009 1226.68 101.641 1236.09 106.873C1245.53 112.106 1256.97 110.266 1249.38 104.523C1241.83 98.7803 1251.19 99.8224 1241.73 94.9887C1226.71 87.3168 1251.8 94.8556 1246.61 90.421C1241.43 85.9864 1254.16 86.4964 1250.74 84.9443C1247.31 83.37 1254.37 77.095 1246.34 76.2525C1238.32 75.4099 1225.09 71.8844 1215.92 69.778C1206.74 67.6715 1205.75 71.0862 1212.52 74.5452C1219.31 78.0041 1223.87 83.4144 1223.87 83.4144C1223.87 83.4144 1218.72 85.4321 1211.34 78.3811C1203.97 71.3301 1197.18 74.4787 1174.88 66.4299C1152.58 58.3811 1146.81 58.2702 1137.53 61.5296C1128.29 64.7891 1116.72 55.6538 1102.39 56.0529C1088.03 56.452 1070.51 53.5695 1060.75 53.3034C1050.99 53.0373 1068.5 59.5563 1064.28 63.2148C1060.06 66.8733 1059.36 62.1727 1052.37 61.8401C1045.41 61.5075 1045.01 43.636 1038.87 53.2148C1035.31 58.7802 1040.22 53.7913 1024.09 55.033C1007.96 56.2747 1021.32 49.6227 1008.16 51.064C995.034 52.4831 1012.15 54.0574 1001.34 55.9421C990.54 57.849 992.821 49.6228 977.482 49.8223C962.176 50.0219 970.91 45.4542 942.242 43.4364C930.686 42.616 920.922 41.7957 923.591 44.4786C926.294 47.1615 918.709 47.0285 914.249 42.2613C909.755 37.4941 900.785 33.7025 888.047 38.9353C875.275 44.1682 871.981 35.3877 861.152 36.2524C844.191 37.6272 870.292 31.3522 850.796 30.3766C839.748 29.8223 846.996 39.4454 840.542 37.4941C834.089 35.5429 847.013 32.3943 841.657 30.1105C836.353 27.8267 832.754 32.9709 831.859 34.5451C830.964 36.1194 821.098 28.7358 832.45 28.4254C843.803 28.0928 838.397 27.1836 832.062 26.3411C825.76 25.4985 817.314 26.3411 807.38 26.0751C797.413 25.809 813.158 41.7957 799.457 37.6937C792.092 35.4764 793.814 42.8378 774.674 33.1704C763.085 27.3167 794.203 50.1549 783.324 49.5562C777.158 49.2236 784.844 54.3234 779.067 51.707C773.289 49.0906 767.815 47.4719 761.092 43.2812C754.402 39.1127 760.365 44.146 753.169 42.7713C746.006 41.3966 754.79 39.1792 750.668 36.9619C746.513 34.7446 743.049 33.7026 742.222 29.7779C741.428 25.8755 733.673 25.0994 726.916 22.993C720.125 20.9087 711.374 14.1238 707.184 17.5162C702.995 20.9087 700.815 17.4497 697.42 18.1592C694.024 18.8688 688.838 15.4098 687.858 19.0683C686.861 22.7269 678.516 20.1105 687.824 26.452C697.133 32.7934 687.858 30.044 677.198 30.3544C669.309 29.8887 670.137 29.667 671.691 33.3699C673.211 37.0728 655.98 32.5273 656.841 30.5096C657.703 28.4918 655.591 30.4431 654.797 28.4919C654.003 26.5406 657.906 26.4076 656.554 24.8999C654.612 22.7491 651.013 27.3167 636.485 26.6072C621.939 25.8976 627.801 29.2901 620.25 30.6648C612.665 32.0395 620.453 24.4564 609.1 25.1881C599.538 25.7868 600.822 28.891 599.572 27.3389C598.322 25.7868 593.761 30.3544 592.122 26.6959C591.125 24.5008 588.98 23.6803 585.297 25.2546C581.614 26.8289 582.037 26.962 587.51 29.4897C583.81 31.6405 581.006 25.1216 579.519 30.0884C578.827 32.4165 573.151 33.6138 571.867 32.7491C570.549 31.9065 569.755 34.656 567.288 35.7647C564.788 36.8733 558.284 38.381 565.346 35.1216C571.985 32.0395 567.103 30.0884 570.853 30.2214C575.347 30.3766 573.353 27.8932 577.948 25.7868C582.527 23.6804 583.827 20.953 586.361 19.8444C588.895 18.7357 585.905 14.412 583.827 15.2102C581.716 16.0085 576.664 14.3012 577.357 13.3256C578.05 12.35 584.317 14.7446 584.807 13.392C585.297 12.0395 574.249 6.47407 571.782 8.31443C570.025 9.60046 566.697 7.27234 557.423 7.00627C548.148 6.74019 554.23 9.09049 551.442 9.22353C548.638 9.35657 552.523 6.36321 542.962 7.53838C535.799 8.40313 531.221 4.78899 529.261 5.432C527.318 6.09719 526.22 3.87983 520.189 6.16365C520.189 6.16365 516.557 16.6736 518.415 7.40533C520.257 -1.86298 506.303 15.4985 511.979 6.60712C514.395 2.85988 514.885 4.12378 509.901 3.6138C504.917 3.08165 504.326 3.87988 501.387 5.76458C498.447 7.67146 497.265 8.31444 497.788 9.99958C498.346 11.7069 493.464 10.1326 497.653 13.9907C489.764 9.48961 490.254 11.84 486.706 10.6648C483.108 9.48966 487.01 11.7069 482.06 12.8821C477.144 14.0573 479.019 11.707 477.347 11.9065C475.675 12.1061 479.813 9.88874 474.543 9.48963C470.742 9.20138 467.481 9.35655 469.694 10.3322C471.874 11.3078 468.664 10.7313 464.609 11.1305C450.452 12.483 455.436 15.2103 452.632 13.7469C449.658 12.1948 448.865 14.7224 444.084 13.4142C439.303 12.106 441.668 15.4985 438.205 15.1881C434.843 14.8777 438.205 17.738 429.623 16.8289C424.707 16.2968 427.156 17.3388 424.352 17.871C421.581 18.381 424.555 18.2036 424.707 20.3543C424.842 22.5051 433.424 23.6138 430.907 23.3478C428.44 23.0817 428.829 31.197 428.626 25.9642C428.423 20.7313 429.707 25.5651 421.142 25.299C412.594 25.0551 407.509 27.3833 402.238 27.4498C400.616 27.472 390.43 27.5606 403.725 36.1416C415.466 43.7247 413.489 36.0085 418.861 41.1083C424.234 46.2081 428.93 41.2413 429.623 47.1172C430.315 52.993 435.4 51.6849 442.631 55.809C449.861 59.911 443.29 62.5274 438.509 57.9598C433.728 53.3922 433.829 58.8689 433.829 58.8689C433.829 58.8689 434.826 56.6516 428.846 54.4343C422.409 52.0618 433.728 45.0551 421.75 46.2746C412.222 47.2502 408.725 42.0395 405.211 42.0395C401.748 42.0395 395.971 38.3811 392.271 37.0063C388.571 35.6316 381.712 33.8134 383.689 37.3389C385.699 40.8644 381.155 38.7136 379.331 37.3389C377.489 35.9642 372.032 40.0883 376.83 41.3965C381.611 42.7048 379.939 46.0972 383.588 45.5207C387.287 44.9442 389.788 48.7358 394.349 49.6893C394.653 49.5119 394.146 51.7292 388.048 48.4033C381.915 45.0773 382.895 48.9797 380.361 47.0285C377.827 45.0773 378.553 48.7358 376.442 46.6294C374.364 44.5451 375.85 49.8888 368.688 38.9132C361.491 27.9597 355.629 25.7424 354.142 26.7181C352.655 27.6937 363.214 32.5274 359.126 35.4764C355.037 38.4032 359.616 39.8444 358.433 43.3034C357.217 46.7624 360.207 44.279 363.011 47.4276C365.782 50.554 369.769 47.2945 369.87 54.9886C369.971 62.7048 375.749 60.2214 377.286 64.523C378.807 68.8245 380.817 67.3833 383.79 65.5651C386.798 63.7248 389.99 62.9487 394.619 67.5828C399.248 72.217 398.843 71.441 396.562 72.6605C394.248 73.9022 394.974 75.2104 401.056 78.6029C389.602 78.6029 396.866 67.9155 387.896 68.625C383.115 69.0019 383.807 69.0685 381.915 70.3323C380.04 71.574 379.939 73.9244 384.449 77.0508C388.977 80.1993 388.081 79.4011 386.493 82.7271C384.905 86.053 385.801 88.1372 380.952 91.7957C376.138 95.4543 377.32 97.2946 374.752 95.1882C372.151 93.1039 364.397 95.3213 366.762 94.6782C369.177 94.0352 368.671 92.594 371.154 92.1284C373.654 91.6628 370.461 89.2015 373.232 88.8024C376.036 88.4033 373.232 84.6339 375.935 84.7004C378.604 84.7447 377.624 79.5563 378.874 77.7159C380.125 75.8977 379.145 73.0153 370.951 70.931C362.775 68.8467 369.465 63.6139 358.839 58.9797C354.379 57.0285 360.291 58.2702 354.514 50.7536C351.186 46.4298 343.753 45.0773 344.952 42.084C346.135 39.0684 337.688 27.8488 333.701 29.8887C329.714 31.9065 328.329 27.2058 325.744 29.0905C323.531 30.7092 316.469 24.7224 320.558 34.3677C325.828 46.8954 318.649 39.8666 318.446 45.8533C318.243 51.8622 317.652 43.769 321.352 50.2214C325.018 56.6959 319.865 50.687 323.734 56.9398C327.856 63.5917 323.142 55.6759 328.413 59.2901C337.975 65.809 333.397 56.9398 337.688 63.4143C341.979 69.8888 345.898 66.6737 345.898 66.6737C345.898 66.6737 347.554 74.9665 345.205 72.727C343.786 71.3967 331.809 72.5939 329.359 69.135C328.075 67.3168 313.361 64.3678 311.013 65.3656C309.104 66.186 308.766 64.1239 303.157 64.5895C298.343 64.9886 290.284 62.3057 286.855 62.3057C283.426 62.3057 279.135 62.3057 277.479 63.8578C275.857 65.4321 280.588 66.5407 284.085 67.8489C287.548 69.1572 287.159 70.3323 281.871 70.7758C276.601 71.2414 281.871 71.8844 280.064 74.9443C280.756 73.1705 276.195 73.7248 277.817 71.8844C279.405 70.0441 274.05 71.1084 278.408 68.9354C279.371 68.4698 274.877 67.5607 272.631 69.3346C270.384 71.1084 269.792 69.2015 265.738 72.0839C261.717 74.9664 261.785 71.0419 252.899 71.0419C244.79 71.0419 248.878 76.0751 246.04 74.2347C244.131 73.0152 238.81 77.6938 240.668 74.7669C242.509 71.8179 241.057 75.2104 240.668 72.35C240.279 69.4897 243.607 73.0596 243.506 71.4409C243.405 69.8001 240.803 69.3567 235.296 70.931C229.755 72.4831 233.944 74.523 231.495 76.6738C228.657 79.1793 231.596 75.1439 231.14 73.6583C229.755 69.2237 222.389 76.1417 220.936 73.6583C219.483 71.1749 214.213 75.2991 209.786 77.3833C205.327 79.4676 204.212 76.4077 202.759 78.5585C201.306 80.7092 199.329 74.6339 201.204 81.3523C203.113 88.0707 202.522 82.727 201.204 86.9621C199.921 91.1971 200.681 86.9621 198.13 88.7803C195.596 90.6206 195.596 87.6051 193.738 88.8467C191.896 90.0884 191.035 87.8712 189.649 89.0464C188.264 90.2215 185.848 86.1639 183.483 85.9643C181.067 85.7648 176.422 80.0219 181.997 81.2636C187.571 82.5053 183.551 78.4698 180.544 76.7625C177.537 75.0774 181.929 74.2126 178.195 73.1704C169.85 70.8423 165.221 68.4698 164.765 69.2458C164.106 70.288 167.367 71.4632 170.762 77.849C174.158 84.257 169.867 85.8756 173.702 86.0086C177.537 86.1417 176.709 86.3856 176.709 88.4255C176.709 90.7537 178.685 99.7781 175.746 95.7204C174.09 93.4366 168.989 99.512 171.725 95.8534C174.462 92.1949 168.786 93.3035 165.593 93.6139C162.417 93.9465 166.59 89.5784 156.876 93.6139C151.656 95.7869 151.656 94.3457 149.51 97.2725C146.638 101.175 146.571 98.6029 145.523 100.798C143.648 104.7 158.464 105.942 156.842 110.199C156.284 111.618 154.038 109.024 151.031 110.532C146.284 112.882 147.01 107.051 137.803 110.532C133.191 112.284 141.401 107.406 135.066 107.982C130.285 108.426 129.491 106.474 128.832 107.916C128.207 109.335 125.572 109.867 127.143 110.665C130.252 112.195 124.694 113.858 133.901 114.191C138.462 114.346 140.895 117.25 139.053 117.516C137.212 117.782 137.735 121.751 136.215 120.266C133.073 117.184 125.994 119.401 124.204 116.94C122.43 114.457 120.774 115.765 116.787 114.789C108.543 112.771 117.683 114.257 114.709 111.463C111.702 108.669 116.196 109.046 112.395 108.337C108.594 107.627 111.871 106.253 110.841 104.612C109.844 102.993 111.888 103.57 111.398 100.377C110.908 97.1838 110.351 101.286 107.31 98.2259C104.269 95.166 102.951 98.3811 98.897 96.2747C93.1194 93.2813 102.428 95.0996 96.2278 92.7492C92.5281 91.3523 94.3526 91.8401 94.3864 91.3079C94.4202 89.6228 86.0071 91.3079 85.7706 88.2481C85.5003 85.1882 86.5647 88.4477 89.2001 87.849C92.866 87.0286 93.2545 89.5784 94.606 88.5585C96.9542 86.8512 95.8562 90.3323 98.272 89.1572C100.654 87.982 100.485 92.7492 102.732 90.3324C106.094 86.7182 99.2011 94.7669 122.227 95.2991C140.168 95.7204 141.199 98.5807 142.888 97.849C149.189 95.0996 150.946 91.3745 152.652 90.3545C154.342 89.3124 152.382 88.4477 153.176 87.8712C154.73 86.7625 148.649 80.9753 148.192 81.0197C146.604 81.1527 147.162 78.9354 145.152 79.3345C143.175 79.7336 136.046 72.2835 131.62 75.0108C127.16 77.7602 115.723 67.8268 112.479 70.4432C109.236 73.0596 98.7788 64.9664 93.8627 66.0751C87.8655 67.4276 86.5647 66.6738 85.4497 67.3833C83.4056 68.6915 82.9494 66.9176 81.7837 67.3168C80.6688 67.7159 75.6853 65.4764 74.3 64.9664C73.1175 64.523 79.8073 65.6981 79.5707 64.5008C79.3342 63.3922 71.2929 59.6006 72.3403 63.7026C73.3708 67.8268 69.8063 61.9509 65.6167 63.6139C66.9006 70.9975 64.0963 64.9664 62.8461 67.1615C61.596 69.3788 61.9845 73.2592 58.7578 75.8534C61.8324 82.1062 62.0522 76.8512 65.1606 81.9732C70.1104 90.1328 61.7649 87.472 70.6003 96.6738C76.4117 102.749 76.4792 105.942 74.2323 104.967C72.8133 104.346 75.094 111.175 76.7326 111.818C80.3648 113.259 72.3403 114.634 77.5266 117.827C88.2878 124.479 72.9484 122.727 85.078 128.204C90.957 130.865 88.8453 137.672 85.4666 139.423C82.9326 140.776 85.9565 143.725 83.2874 143.525C81.6318 143.414 80.8377 147.605 74.9081 152.284C73.4215 153.437 69.063 157.938 69.3671 160.111C74.8744 156.408 73.3201 160.066 71.9348 160.443C70.5157 160.842 75.3304 163.259 76.6143 162.594C79.7227 160.975 80.1451 167.162 83.6083 164.944C86.2099 163.281 86.6154 165.565 89.1832 165.211C90.6023 165.011 88.254 169.446 86.6491 169.268C83.1184 168.825 80.5844 166.497 79.9593 169.534C78.9288 174.257 75.3473 167.827 75.1784 172.018C75.0094 175.942 73.5229 169.8 72.4755 171.109C71.445 172.417 73.5228 172.217 72.8133 174.811C77.138 177.716 71.4281 172.993 73.1512 189.778C71.1409 195.277 76.3272 190.377 74.3 195.122C71.3943 201.84 75.3812 193.326 76.209 204.435C76.3103 205.831 87.1221 204.523 86.9363 207.339C86.6322 211.33 90.4334 204.279 93.0688 202.86C95.1467 201.774 96.1096 205.322 97.63 205.521C104.303 206.364 94.7242 208.603 100.536 213.282C103.205 215.432 102.918 216.364 102.056 217.517C101.127 218.781 103.999 220.133 109.641 223.149C112.091 224.457 112.479 222.616 114.22 223.792C118.933 227.007 112.53 225.477 116.602 228.359C117.396 228.936 119.203 227.605 120.859 228.47C122.514 229.357 121.247 230.776 125.183 232.55C126.501 233.149 129.305 237.517 123.173 239.29C120.538 240.067 117.632 242.927 115.588 239.667C113.172 235.809 108.172 237.384 116.179 252.195C119.71 252.328 115.554 248.714 126.383 249.512C140.236 250.554 131.062 252.129 136.215 253.747C143.901 256.209 130.674 266.475 139.644 264.656C150.304 262.483 141.401 263.348 147.601 268.182C155.186 274.058 145.827 277.716 151.402 279.734C160.609 283.06 154.73 289.18 163.042 281.752C169.309 276.142 169.309 287.894 177.486 287.894C185.629 287.894 181.287 290.488 190.393 291.197C199.498 291.929 184.058 299.889 189.835 300.355C193.636 300.643 187.656 304.058 191.018 306.696C196.39 310.865 192.64 318.182 188.636 320.2C184.649 322.218 181.676 323.659 182.436 333.215C194.059 328.603 194.075 329.49 190.781 333.903C182.165 345.455 178.28 332.018 185.24 343.237C192.234 354.457 184.446 342.728 182.098 352.705C179.75 362.683 174.682 355.255 176.624 360.998C178.567 366.741 189.227 365.433 199.785 378.204C199.785 378.204 202.793 373.504 210.733 378.626C222.017 385.876 228.285 380.399 236.174 388.936C244.655 398.071 242.34 388.182 254.386 393.57C262.41 397.162 255.94 398.337 270.282 408.648C280.047 415.677 281.956 411.619 287.48 407.65C277.158 396.852 276.584 388.315 274.05 379.623C271.516 370.954 258.93 366.763 265.941 365.388C272.631 364.08 264.319 360.244 266.431 359.579C272.141 357.805 263.136 342.75 270.063 348.027C273.289 350.488 276.499 348.493 276.33 341.951C276.229 337.938 279.625 343.348 282.007 339.49C282.007 339.49 282.361 338.027 280.858 336.83C275.08 332.328 288.156 335.654 276.837 324.169C269.64 316.874 269.607 322.328 267.14 317.827C264.792 313.659 261.869 325.854 259.944 314.368C258.829 307.495 252.645 313.814 256.97 302.04C261.548 289.579 255.974 294.923 258.254 288.071C260.096 282.528 258.676 275.299 261.954 280.821C264.623 285.388 264.826 292.439 268.914 289.956C272.276 287.916 270.401 284.346 265.079 278.005C269.404 276.386 268.711 282.927 270.992 276.962C272.715 272.528 277.462 270.488 276.634 266.209C275.384 259.69 280.469 261.131 281.753 264.058C285.875 273.348 287.193 258.714 292.109 263.659C298.714 270.244 296.603 255.876 307.313 271.198C313.023 279.335 305.759 260.71 317.905 272.461C325.862 280.155 323.886 275.078 324.764 271.419C325.693 267.761 327.079 273.104 330.964 270.843C336.64 267.517 333.633 276.652 339.276 272.284C340.965 270.954 352.335 265.565 349.598 271.175C345.273 280.044 354.548 280.71 357.014 272.927C365.19 278.936 373.637 281.619 373.806 271.685C373.975 261.774 365.849 267.228 355.73 263.459C344.175 259.158 371.965 253.016 359.058 250.931C349.53 249.379 361.93 247.672 354.666 245.898C350.51 244.878 353.348 241.375 355.696 238.647C357.538 236.475 364.481 234.967 371.069 235.432C370.275 235.366 390.413 235.366 391.393 232.55C392.389 229.756 400.87 230.732 409.317 229.047C417.797 227.339 414.503 218.404 422.781 220.554C429.082 222.195 431.43 216.563 430.991 222.572C430.535 228.581 436.008 227.007 433.272 230.022C430.535 233.016 438.086 236.985 439.438 234.058C441.786 229.091 442.8 240.843 445.976 234.324C447.564 231.087 448.983 236.94 454.085 235.299C451.044 250.377 454.355 239.801 461.112 241.552C467.87 243.326 460.116 236.94 464.086 236.475C468.073 236.009 467.278 233.792 471.975 232.883C476.671 231.973 478.834 231.707 472.667 237.45C505.728 251.818 511.168 266.896 519.513 278.559C527.893 290.244 525.257 263.282 529.734 277.916C533.164 289.135 546.56 271.907 550.648 281.175C554.703 290.421 553.723 280.776 558.673 290.178C562.829 298.138 562.896 286.009 567.576 294.945C569.062 297.783 573.015 297.339 573.843 294.945C575.059 291.419 576.648 290.954 579.621 292.528C582.628 294.102 581.006 289.912 588.203 290.909C593.541 291.641 593.98 300.111 596.447 298.537C598.947 296.985 595.366 302.461 602.258 302.528C603.711 302.528 604.759 302.75 605.401 302.04C606.887 300.377 604.285 295.3 609.134 294.679C612.766 294.213 612.665 287.561 615.368 290.311C618.037 293.06 615.79 282.927 618.172 284.767C620.588 286.586 623.223 280.266 625.47 281.996C627.751 283.77 629.389 275.033 632.194 277.827C634.964 280.643 638.174 272.151 640.505 275.809C644.56 282.151 646.536 273.193 650.675 282.528C654.814 291.863 654.105 283.637 657.635 287.096C661.166 290.555 660.862 287.295 669.647 290.311C678.398 293.304 679.208 287.051 680.594 288.736C681.675 290.067 687.757 285.477 680.982 279.867C670.593 271.264 676.894 275.566 678.702 269.024C680.475 262.506 675.002 259.889 677.35 253.991C682.536 255.166 681.506 257.273 695.967 261.264C708.806 264.789 704.481 290.954 723.216 286.453C744.029 281.441 735.549 286.785 743.945 285.809C759.977 283.925 748.303 298.803 768.103 293.969C780.536 290.909 786.973 296.186 799.541 290.178C809.762 285.3 813.935 283.592 827.264 287.916C830.406 288.936 834.089 290.355 838.414 292.062C861.152 300.998 857.318 277.894 859.531 269.535C861.71 261.175 868.248 252.306 857.875 253.614C849.884 254.612 847.519 246.563 858.922 245.521C870.309 244.479 861.862 240.31 878.992 240.377C896.122 240.443 911.259 248.138 928.946 272.35C946.6 296.563 957.057 290.421 970.91 304.014C984.763 317.606 989.324 311.841 996.909 304.523C1004.46 297.206 1016.02 309.224 1010.14 318.626C1004.26 328.027 1023.6 328.027 1012.05 339.512C1006.64 344.9 1016.44 345.255 1002.08 358.847C996.098 364.479 1008.84 365.632 1010.88 379.025C1012.57 389.202 1015.54 392.971 1015.54 392.971Z" fill="#2D56BB"/>
<path fill-rule="evenodd" clip-rule="evenodd" d="M1024.06 238.58C1023.64 232.084 1013.57 226.939 1015.31 226.651C1017.05 226.363 1022.96 223.724 1024.75 228.846C1025.54 231.174 1025.97 234.545 1027.72 235.343C1029.48 236.141 1031.53 236.696 1034.4 239.401C1037.3 242.084 1030.9 239.112 1035.44 242.904C1039.97 246.673 1039.08 246.274 1040.6 249.645C1042.08 253.015 1041.42 253.835 1046.76 258.225C1052.1 262.616 1055.35 265.121 1057.22 269.423C1059.06 273.747 1063.2 273.68 1069.16 283.747C1074.64 292.993 1081.48 295.188 1082.49 298.381C1083.22 300.687 1078.66 296.075 1075.99 295.543C1073.32 295.011 1067.81 293.525 1072.56 300.62C1075.47 304.966 1073.08 309.334 1080.31 319.024C1083.05 322.727 1084.5 319.955 1087.17 324.678C1089.84 329.401 1091.06 325.676 1095.35 331.995C1099.23 337.738 1098.53 343.126 1097.6 341.175C1096.01 337.738 1094.86 334.811 1092.44 335.232C1086.94 336.208 1086.07 330.753 1086.94 336.208C1089.54 352.926 1090.92 354.323 1086.24 348.603C1076.75 337.028 1083.34 339.556 1081.5 331.995C1079.66 324.434 1076.51 328.07 1074.6 320.332C1072.69 312.549 1072.15 310.332 1068.2 307.915C1062.1 304.19 1062.69 300.554 1060.48 293.348C1058.27 286.119 1048.4 273.126 1043.45 269.068C1038.5 265.033 1044.28 264.257 1036.46 258.868C1028.64 253.48 1028.01 255.099 1026.17 250.775C1024.33 246.474 1018.94 241.064 1020.6 238.625C1022.25 236.186 1024.14 240.199 1024.06 238.58Z" fill="#182F67"/>
<path fill-rule="evenodd" clip-rule="evenodd" d="M1097.07 387.494C1098.1 385.343 1091.09 381.995 1094.2 376.718C1096.58 372.638 1092.05 374.655 1091.26 370.176C1089.67 360.975 1084.23 362.305 1085.99 357.494C1087.02 354.7 1086.38 352.704 1089.55 355.542C1092.75 358.38 1092.95 361.352 1099.35 364.323C1105.72 367.294 1106.97 371.063 1113.96 373.103C1120.96 375.143 1123.07 378.669 1125.28 376.762C1129.15 373.392 1132.07 361.174 1129.61 375.941C1128.53 382.416 1132.72 379.622 1132.94 381.817C1133.73 389.445 1142.57 380.531 1136.6 387.538C1134.22 390.354 1131.65 392.66 1127.95 391.862C1124.25 391.041 1123.04 398.624 1124.29 400.753C1125.22 402.327 1127.09 406.274 1122.17 403.724C1117.19 401.152 1114.15 403.059 1109.01 398.536C1103.24 393.458 1105.1 403.192 1101.4 400.487C1096.34 396.806 1093.84 404.545 1099.94 404.545C1103.68 404.545 1110.92 411.551 1107.76 411.64C1101.7 411.817 1104.17 418.558 1100.84 417.161C1095.33 414.855 1100.57 408.314 1096.65 407.516C1092.76 406.695 1089.45 400.953 1091.97 398.336C1095.6 394.567 1088.4 391.928 1090.13 389.822C1091.78 387.693 1093.67 394.611 1097.07 387.494Z" fill="#182F67"/>
<path fill-rule="evenodd" clip-rule="evenodd" d="M1107.95 415.054C1107.74 411.595 1108.5 412.792 1111.87 414.078C1115.74 415.564 1115.13 410.774 1115.5 418.335C1115.74 423.191 1115.74 420.53 1120.25 423.635C1124.76 426.739 1132.19 429.976 1133.78 445.298C1134.37 450.907 1137.73 461.018 1134.67 457.493C1131.56 453.989 1132.1 463.169 1133.98 465.054C1135.89 466.938 1139.86 472.881 1139.1 478.358C1138.34 483.834 1138.58 492.592 1141.24 494.211C1143.95 495.83 1145.01 497.981 1143.95 501.506C1142.87 505.009 1143.53 508.801 1141.57 511.107C1139.59 513.391 1140.74 513.923 1139.76 509.067C1138.79 504.211 1139 502.593 1137.75 502.327C1136.53 502.038 1135.28 505.298 1136.72 506.096C1138.17 506.916 1137.07 510.553 1135.89 510.42C1134.71 510.287 1133.84 512.038 1134.86 513.923C1135.87 515.808 1133.2 519.333 1132.58 516.761C1131.99 514.189 1129.5 511.772 1128.25 515.542C1127.04 519.311 1126.01 518.513 1123 518.513C1120.03 518.513 1113.62 518.247 1116.93 516.761C1120.25 515.276 1113.02 516.628 1112.51 514.877C1111.98 513.125 1110.67 515.143 1112.15 518.069C1113.64 520.974 1114.06 518.269 1115.72 520.708C1117.34 523.125 1111.16 526.65 1113.74 531.218C1116.31 535.808 1110.04 534.721 1107.2 532.038C1104.37 529.333 1101.8 532.836 1102.15 526.229C1102.51 519.621 1099.45 523.679 1101.7 517.449C1098.52 519.2 1096.44 518.136 1092.86 518.269C1089.26 518.402 1091.41 521.24 1088.3 520.154C1085.23 519.067 1085.63 523.923 1082.96 522.304C1080.29 520.686 1081.93 525.808 1079.26 523.657C1076.59 521.484 1077.81 532.282 1074.11 529.599C1070.41 526.916 1066.49 532.038 1063.62 530.131C1060.71 528.247 1057.62 521.373 1063.62 522.038C1066.07 522.304 1069.16 508.823 1071.24 507.737C1073.28 506.65 1067.32 507.803 1073.08 504.366C1078.82 500.93 1074.11 505.519 1077.99 503.435C1081.91 501.329 1082.56 503.014 1088.72 499.377C1091.76 497.581 1090.56 502.349 1092.84 499.91C1095.09 497.493 1096.34 505.032 1098.82 500.996C1101.29 496.938 1096.54 498.823 1098 492.637C1099.45 486.428 1094.3 483.856 1096.54 478.868C1098.82 473.879 1099.45 471.329 1101.07 472.925C1102.73 474.544 1099.45 478.867 1101.11 477.781C1102.73 476.695 1101.31 483.723 1103.98 482.371C1106.65 481.018 1107.86 477.936 1111.6 473.413C1115.3 468.89 1112.53 466.318 1114.82 461.129C1117.14 455.941 1113.83 445.12 1112.19 442.703C1110.57 440.286 1108.72 443.79 1107.66 441.085C1106.63 438.402 1110.7 438.801 1108.81 434.898C1106.9 430.974 1102.71 428.468 1104.59 426.251C1107.91 422.26 1102.96 422.282 1104.32 419.488C1106.09 415.808 1110.45 424.1 1110.92 420.863C1111.31 418.025 1113.42 413.79 1110.19 417.094C1108.29 419.067 1108.08 417.182 1107.95 415.054Z" fill="#182F67"/>
<path fill-rule="evenodd" clip-rule="evenodd" d="M1082.29 529.268C1082.65 528.47 1083.44 528.049 1084.01 528.758C1084.28 529.091 1084.44 529.889 1084.88 529.557C1085.4 529.18 1086.19 528.78 1086.19 528.248C1086.19 527.118 1086.46 526.452 1087.19 526.053C1088.91 525.166 1090.72 525.366 1092.53 525.277C1093.22 528.004 1095.67 528.071 1096.89 529.911C1097.72 531.131 1098.7 533.193 1097.55 534.967C1096.75 536.164 1096.26 536.874 1095.71 538.226C1095.37 539.024 1096.16 540.754 1095.98 540.865C1093.96 541.929 1092.38 537.605 1090.33 539.534C1089.08 540.754 1089.29 542.528 1088.78 544.213C1088.58 545.06 1088.54 545.96 1088.68 546.829C1088.74 547.251 1089.07 547.761 1088.88 547.96C1088.02 548.781 1086.94 548.381 1085.97 547.982C1085.55 547.805 1085.74 546.896 1085.74 546.585C1085.11 546.652 1084.77 547.517 1084.35 546.807C1083.63 545.632 1084.08 543.991 1083.66 542.727C1083.32 541.685 1082.41 541.197 1081.51 540.998C1080.62 540.82 1078.68 543.415 1078.51 541.996C1078.81 541.064 1080.16 540.044 1080.23 539.268C1080.4 537.007 1079.99 534.656 1080.57 532.417C1080.84 531.219 1081.8 530.488 1082.29 529.268ZM1059.89 532.993C1061.8 531.308 1063.49 531.973 1065.23 531.907C1067.34 532.106 1065.06 533.548 1065.36 534.679C1065.7 535.876 1069.1 537.228 1070.31 535.078C1071.07 533.725 1073.39 535.455 1073.84 537.184C1074.01 537.849 1073.54 538.581 1073.78 539.335C1074.3 540.909 1075.69 540.222 1076.62 540.776C1077.34 541.242 1077.21 542.594 1077.66 543.459C1077.76 543.659 1078.15 543.858 1078.49 543.792C1078.46 544.08 1078.73 544.302 1078.63 544.59C1079.32 544.9 1079.42 545.876 1079.08 546.585C1076.97 551.109 1077.93 555.92 1079.08 560.532C1079.35 561.685 1078.78 562.705 1078.42 563.769C1077.73 565.832 1078.69 567.982 1078.22 570.067C1078.12 570.399 1077.63 570.466 1077.26 570.222C1077.26 570.399 1077.26 570.599 1077.16 570.754C1077.61 571.087 1077.88 571.707 1077.58 572.151C1076.95 573.127 1076.43 574.346 1075.4 574.59C1075.3 574.612 1075.2 574.324 1075.2 574.124C1075.26 573.104 1076.28 572.106 1075.65 571.22C1075.45 570.976 1074.93 570.909 1074.86 570.687C1074.62 570.155 1074.86 569.357 1074.52 568.758C1074.28 568.293 1074.06 568.448 1073.9 568.781C1073.56 569.446 1073.66 570.333 1074 570.976C1074.59 572.195 1074.3 573.636 1073.41 573.792C1072.58 573.947 1070.91 574.058 1070.43 573.082C1069.98 572.04 1071.33 572.173 1070.7 570.776C1070.36 570.111 1069.59 570 1069.32 569.424C1068.69 568.005 1067.9 566.696 1066.65 566.186C1065.92 565.876 1065.57 564.634 1065.89 563.769C1066.09 563.282 1066.94 563.393 1067.04 562.993C1067.63 560.643 1068.12 556.94 1066.01 555.144C1065.35 554.568 1066.17 552.971 1065.77 551.885C1065.01 549.823 1063.49 548.891 1062.24 547.339C1062.1 547.14 1061.61 547.162 1061.51 547.428C1061.06 548.936 1063 548.803 1062.93 550.111C1062.9 550.687 1062.37 550.931 1062.21 551.53C1061.87 552.639 1060.72 552.106 1060.33 551.353C1059.91 550.577 1059.7 549.623 1058.98 549.379C1058.15 549.133 1057.42 548.519 1056.9 547.641C1056.38 546.763 1056.12 545.677 1056.14 544.568C1056.14 543.526 1055.03 542.75 1055.35 541.109C1056.28 536.408 1056.34 539.601 1057.19 540.022C1057.26 540.067 1057.61 539.756 1057.74 539.446C1058.66 536.807 1057.85 534.811 1059.89 532.993Z" fill="#182F67"/>
<path fill-rule="evenodd" clip-rule="evenodd" d="M256.969 50.2657C250.33 48.514 243.37 48.2257 241.004 45.2767C238.589 42.3277 232.135 39.3566 233.25 37.5162C234.365 35.6759 235.632 32.5273 234.247 32.9042C232.828 33.259 238.606 27.7379 236.359 28.2922C234.112 28.8466 228.216 26.8288 226.223 26.2745C224.229 25.7202 224.246 27.7379 221.577 27.3831C218.908 27.0062 216.661 29.4009 217.353 30.3321C218.046 31.2634 216.661 31.7956 214.938 34.0129C213.248 36.2523 213.248 40.6648 211.576 39.0018C209.887 37.361 207.488 45.4763 210.157 46.208C212.826 46.9619 214.38 41.4186 215.934 45.0994C217.489 48.7801 218.046 43.0595 218.772 46.5628C219.465 50.0661 221.999 45.4542 221.712 48.4032C221.408 51.3522 225.378 48.4032 225.243 51.3522C225.074 54.3012 223.553 50.4209 223.688 52.6382C223.824 54.8555 221.019 55.9641 224.246 56.5184C227.473 57.0506 229.466 54.8555 230.716 56.1415C232 57.4497 236.494 58.1593 235.075 55.9642C233.69 53.7469 242.272 56.8954 241.14 54.8555C240.025 52.8156 244.248 51.7069 246.613 53.3921C249.029 55.055 252.087 56.1637 250.279 54.1238C248.471 52.0839 251.394 51.1748 252.256 52.4608C253.083 53.769 263.304 51.9287 256.969 50.2657Z" fill="#182F67"/>
<path fill-rule="evenodd" clip-rule="evenodd" d="M222.274 25.7193C226.328 23.5463 226.801 24.9876 230.45 25.7193C234.099 26.451 236.059 26.828 237.613 25.3424C239.167 23.8568 240.029 23.502 237.748 21.6395C236.887 20.93 245.637 22.3712 244.506 21.0851C242.326 18.6018 251.837 22.0164 250.148 19.6218C248.459 17.2271 257.176 20.176 255.486 17.5818C253.797 15.0097 263.376 17.9587 261.399 14.8102C259.423 11.6616 269.576 14.9876 268.984 13.1472C268.427 11.3069 275.488 13.5242 274.356 11.3069C273.208 9.08959 283.631 12.4155 282.77 10.1982C281.942 7.98087 290.659 11.6616 289.831 9.08953C288.969 6.51747 296.301 9.8434 294.325 3.56845C292.382 -2.70651 288.412 0.974261 285.878 2.08291C283.344 3.19156 279.408 5.03191 275.049 5.03191C270.691 5.03191 259.963 3.19155 262.514 5.03191C265.048 6.87227 252.682 5.03189 254.929 6.14054C257.176 7.24919 244.235 4.85453 247.597 6.87227C250.959 8.91218 233.812 10.7525 238.323 12.0385C240.079 12.5485 226.075 12.1938 227.595 14.6328C229.014 16.8501 219.148 17.5818 221.564 20.176C222.561 21.2625 217.476 28.3135 222.274 25.7193Z" fill="#182F67"/>
<path fill-rule="evenodd" clip-rule="evenodd" d="M69.4664 159.999C60.5297 162.815 62.1008 157.471 59.1444 159.888C53.8398 164.167 51.2552 160.198 49.211 162.504C45.8492 166.362 44.6835 160.997 43.2138 164.012C41.6933 167.005 40.3756 161.595 36.3888 163.946C31.2024 167.005 34.9359 167.094 32.1654 167.094C29.7496 167.094 27.4858 170.065 26.1343 169.71C25.6444 169.6 29.834 164.278 26.3371 165.586C23.1949 166.762 24.3943 162.46 24.6477 160.886C17.7214 167.87 22.4009 158.203 19.2756 159.467C15.5421 160.93 18.0254 157.804 16.5388 155.542C14.9677 153.192 17.5693 151.64 16.2685 150.575C14.8663 149.444 15.9644 148.868 14.5285 147.781C13.0756 146.673 14.7819 145.742 13.3797 144.522C11.9944 143.28 14.6806 143.413 13.0757 141.573C11.4877 139.755 15.3731 140.154 12.7715 139.289C10.8456 138.646 13.5149 135.342 14.0048 136.407C14.6637 137.781 16.6232 136.074 15.1535 135.099C13.7006 134.123 15.0015 133.923 16.353 133.325C17.7045 132.726 17.3159 132.039 18.3295 132.992C19.9851 134.5 19.6472 128.624 22.0292 129.799C24.0396 130.775 22.7894 124.455 25.1714 126.717C26.827 128.291 26.2189 125.298 27.621 125.342C29.0739 125.409 28.1784 123.325 30.1212 123.635C32.0302 123.968 32.0302 121.551 34.3446 120.708C36.6252 119.843 35.865 119.2 37.6726 117.05C39.7505 114.566 38.9566 118.89 41.0008 117.249C42.7577 115.852 40.477 116.074 40.2067 112.482C39.9026 108.291 32.2498 109.467 30.797 107.271C29.5131 105.276 29.378 106.717 28.0941 105.076C27.494 104.275 26.9405 103.415 26.4385 102.504C24.7829 99.4665 27.6885 96.207 23.6003 93.0363C19.7992 90.0873 23.6342 86.9166 21.0326 87.1605C18.9546 87.36 21.59 83.5906 17.1976 80.1982C11.4538 75.7414 4.98361 80.8633 0 72.3932C2.1117 71.6393 -0.0338284 71.0407 1.01357 69.289C2.06098 67.5374 3.12529 66.34 4.25716 69.289C5.38903 72.238 12.9742 74.0784 16.5219 74.4554C20.0188 74.8323 24.7322 78.1361 25.4248 76.1184C26.1174 74.1006 26.0837 72.7481 27.469 75.3423C28.888 77.9144 32.5539 81.972 33.6688 78.8456C34.75 75.8301 35.6116 73.7014 37.1996 73.3245C38.7538 72.9476 39.7337 73.3246 38.1964 70.7303C36.6591 68.1361 41.6934 64.3223 43.1125 61.9276C44.4977 59.5329 46.1194 61.6394 47.9608 60.1538C49.7684 58.6904 52.3532 57.3821 52.3532 59.4221C52.3532 61.4398 56.4752 62.8367 57.8604 63.7458C59.2795 64.677 56.6103 69.3999 57.8604 70.6859C59.1444 71.9941 57.8943 74.0784 58.8573 75.7635C61.9319 82.0163 62.1515 76.7613 65.2599 81.9055C70.2097 90.0651 61.8643 87.3823 70.6996 96.584C76.511 102.659 76.5786 105.852 74.3318 104.877C72.9127 104.256 75.1933 111.085 76.8319 111.728C80.4641 113.169 72.4397 114.544 77.626 117.737C88.3872 124.389 73.0478 122.637 85.1774 128.114C91.0564 130.775 88.9447 137.582 85.566 139.334C83.032 140.686 86.0559 143.635 83.3867 143.436C81.7311 143.325 80.9372 147.515 75.0075 152.194C73.5209 153.325 69.1623 157.826 69.4664 159.999Z" fill="#182F67"/>
<path fill-rule="evenodd" clip-rule="evenodd" d="M361.439 421.218C354.682 420.487 352.165 422.327 348.668 413.658C345.171 404.988 332.332 398.979 328.277 416.407C331.876 420.243 331.538 422.239 332.399 421.972C332.433 421.95 334.089 417.161 333.193 415.564C330.947 411.662 332.332 411.396 334.511 410.221C336.724 409.046 339.005 408.27 339.495 411.529C339.985 414.788 348.769 415.697 345.238 419.023C342.468 421.64 346.066 424.567 341.809 423.391C337.518 422.216 341.116 424.035 338.109 425.742C335.136 427.427 333.531 422.593 332.535 422.992C331.538 423.391 332.889 430.953 333.531 434.5C334.19 438.026 339.934 432.793 338.87 436.451C338.109 439.023 342.012 439.312 338.701 440.354C335.44 441.396 332.636 434.877 335.474 443.369C338.312 451.839 337.13 445.054 339.596 444.278C342.096 443.502 341.91 447.161 346.793 450.154C351.675 453.17 347.029 459.157 349.766 470.243C350.813 474.567 352.232 471.485 354.75 470.642C357.79 469.622 355.02 462.638 359.277 458.824C364.024 454.589 367.487 459.534 368.94 456.984C369.988 455.143 376.762 456.451 377.556 459.91C378.738 465.143 394.281 464.345 399.923 472.771C405.532 481.197 406.647 474.922 411.563 478.137C416.479 481.33 413.708 485.631 416.175 487.981C417.56 489.29 418.151 493.325 419.672 496.54C420.274 497.996 421.189 499.187 422.304 499.964C423.418 500.741 424.683 501.069 425.939 500.908C430.298 500.598 428.845 503.902 433.17 507.826C433.17 507.826 432.815 505.609 435.704 502.017C439.37 497.472 434.014 496.695 439.538 493.791C445.874 490.465 447.056 489.29 447.124 485.099C447.158 480.199 446.853 474.256 449.371 473.236C453.425 471.529 450.165 470.997 455.435 468.979C453.949 462.904 456.719 456.518 452.935 456.075C449.151 455.631 450.756 453.392 443.627 453.724C436.498 454.035 439.403 448.691 426.53 442.882C409.147 435.01 410.955 432.571 402.575 416.252C401.156 413.458 399.737 415.786 394.652 417.627C389.567 419.467 387.895 414.766 388.486 410.842C389.077 406.917 381.729 402.216 377.235 401.13C372.741 400.021 380.529 406.274 374.093 404.057C370.562 402.837 371.559 405.764 367.656 408.624C360.223 414.145 372.065 421.551 361.439 421.218Z" fill="#182F67"/>
<path fill-rule="evenodd" clip-rule="evenodd" d="M491.18 435.122C491.383 439.822 489.305 442.86 486.923 439.734C484.508 436.607 476.568 440.532 476.956 443.392C477.345 446.252 486.028 442.438 487.717 444.944C490.488 449.135 493.292 441.818 495.894 444.944C498.462 448.093 508.868 447.804 520.085 443.37C519.258 429.002 523.025 419.689 527.451 422.483C532.823 425.875 526.826 416.474 534.817 422.483C542.773 428.492 536.793 418.58 543.99 415.166C551.153 411.773 547.977 418.713 551.744 414.124C557.724 406.807 559.296 408.891 559.921 405.254C561.036 398.381 568.029 405.144 568.029 398.713C562.59 404.656 567.1 394.7 560.63 397.161C553.045 400.022 557.826 392.727 553.636 394.235C549.48 395.72 534.141 393.968 526.522 393.902C518.903 393.835 511.014 384.368 510.912 393.835C510.811 403.303 504.645 392.993 500.016 395.343C492.262 399.268 497.566 389.667 489.39 400.665C493.157 403.015 494.069 401.374 488.106 413.126C482.953 423.259 483.088 425.41 487.109 421.219C491.89 416.252 492.481 427.228 497.279 420.443C501.198 414.878 501.671 415.21 503.648 419.645C505.624 424.079 506.824 421.995 508.834 424.611C510.811 427.228 519.359 424.257 514.021 428.536C506.824 434.279 505.304 435.92 501.249 434.545C495.066 432.416 496.164 436.962 491.18 435.122Z" fill="#182F67"/>
<path fill-rule="evenodd" clip-rule="evenodd" d="M489.392 400.643L486.943 403.991C481.79 411.086 483.513 414.368 477.938 420.909C469.694 430.576 478.732 432.66 472.532 432.66C465.403 432.66 475.539 426.496 470.083 427.649C455.436 430.709 451.838 430.576 451.5 414.966L446.972 416.452L442.749 406.119L446.55 405.742L443.881 392.461L440.806 397.25C430.94 376.452 430.112 386.452 426.447 381.042C422.747 375.609 426.751 386.186 421.362 385.654C414.331 385.049 407.29 384.701 400.245 384.611C396.055 384.745 392.845 371.286 395.058 370.266C397.238 369.223 394.062 356.43 389.483 355.631C389.483 355.631 392.947 353.348 389.72 352.572C384.601 351.33 391.477 340.753 382.304 344.146C372.928 347.627 378.216 336.762 374.161 342.394C369.769 348.447 369.904 331.042 370.174 345.52C370.563 368.203 366.153 332.971 365.68 352.017C365.579 356.03 348.854 356.452 350.932 367.206C352.453 374.855 361.423 421.264 361.423 421.264C354.666 420.532 352.149 422.372 348.652 413.702C345.155 405.033 332.316 399.024 328.261 416.452C322.348 415.41 322.484 404.789 324.561 403.614C327.095 402.195 325.22 396.585 325.845 394.212C327.822 386.629 310.996 399.689 314.527 389.645C316.571 383.858 308.361 389.866 306.384 381.862C303.343 369.534 294.677 379.201 292.987 371.241C291.839 365.742 304.137 370.576 306.012 367.317C307.921 364.057 303.63 367.317 300.539 364.19C297.464 361.064 303.309 352.017 305.81 354.124C309.695 357.383 309.695 349.157 313.986 355.898C316.098 359.201 321.943 360.798 318.868 356.23C315.963 351.951 324.376 352.971 320.321 348.27C317.449 345.011 320.558 341.485 317.449 340.31C315.101 339.401 317.686 334.966 314.949 333.259C312.212 331.552 315.287 322.815 307.229 324.9C294.457 328.203 297.194 325.498 295.454 328.824C293.443 332.682 290.47 331.685 287.396 335.099C284.287 338.492 282.057 339.423 282.057 339.423C282.057 339.423 282.412 337.959 280.908 336.762C275.131 332.261 288.206 335.587 276.888 324.101C269.691 316.806 269.657 322.261 267.191 317.76C264.843 313.591 261.92 325.787 259.994 314.301C258.879 307.427 252.696 313.747 257.021 301.973C261.599 289.511 256.024 294.855 258.305 288.004C260.146 282.461 258.727 275.232 262.005 280.753C264.674 285.321 264.876 292.372 268.965 289.888C272.326 287.849 270.451 284.279 265.13 277.937C269.455 276.319 268.762 282.86 271.043 276.895C272.766 272.461 277.513 270.421 276.685 266.141C275.435 259.622 280.52 261.064 281.804 263.99C285.926 273.281 287.244 258.647 292.16 263.591C298.765 270.177 296.653 255.809 307.364 271.13C313.074 279.268 305.81 260.642 317.956 272.394C325.913 280.088 323.936 275.01 324.815 271.352C325.744 267.693 327.129 273.037 331.015 270.775C336.691 267.449 333.684 276.585 339.326 272.194C341.016 270.864 352.385 265.498 349.648 271.086C345.324 279.955 354.598 280.62 357.065 272.837C365.241 278.846 373.688 281.529 373.857 271.596C374.026 261.684 365.9 267.139 355.781 263.37C344.226 259.046 372.015 252.926 359.109 250.842C349.581 249.29 361.981 247.582 354.717 245.809C350.561 244.789 353.399 241.285 355.747 238.558C357.588 236.385 364.532 234.877 371.12 235.343C370.326 235.276 390.463 235.276 391.443 232.46C392.44 229.667 400.92 230.642 409.367 228.957C417.848 227.25 414.554 218.314 422.831 220.465C429.133 222.106 431.481 216.474 431.042 222.483C430.586 228.491 436.059 226.917 433.322 229.933C430.586 232.926 438.137 236.895 439.488 233.968C441.837 229.001 442.85 240.753 446.026 234.234C447.614 230.997 449.033 236.828 454.135 235.21C451.094 250.288 454.405 239.711 461.163 241.463C467.92 243.236 460.166 236.828 464.136 236.385C468.123 235.919 467.329 233.702 472.026 232.793C476.722 231.884 478.884 231.618 472.718 237.361C505.779 251.729 511.219 266.806 519.564 278.469C527.943 290.155 525.308 263.192 529.785 277.826C533.214 289.046 546.611 271.817 550.699 281.086C554.753 290.354 553.774 280.687 558.724 290.088C562.879 298.048 562.947 285.919 567.626 294.855C569.113 297.693 573.066 297.25 573.894 294.855C575.11 291.352 576.698 290.864 579.671 292.438C582.678 294.013 581.057 289.822 588.254 290.82C593.592 291.551 594.031 300.021 596.497 298.447C598.998 296.895 595.416 302.35 602.309 302.438C603.103 308.78 585.415 294.279 592.173 320.908C593.49 326.008 583.625 329.778 578.083 327.316C568.488 323.015 571.36 330.243 571.883 349.866C574.654 357.427 565.092 351.463 559.67 355.121C554.23 358.78 555.75 364.523 557.524 363.348C559.365 362.128 570.093 378.913 567.778 383.392C563.285 392.084 573.117 393.059 567.947 398.736C562.507 404.678 567.018 394.722 560.548 397.184C552.963 400.044 557.744 392.749 553.554 394.257C549.398 395.742 534.059 393.991 526.44 393.924C518.821 393.858 510.931 384.39 510.83 393.858C510.729 403.326 504.563 393.015 499.934 395.365C492.264 399.246 497.569 389.645 489.392 400.643Z" fill="#2D56BB"/>
<path fill-rule="evenodd" clip-rule="evenodd" d="M455.437 469.002C450.166 471.042 453.427 471.574 449.372 473.259C446.872 474.279 447.159 480.221 447.126 485.122C447.058 489.29 445.875 490.488 439.54 493.813C434.033 496.718 439.371 497.494 435.706 502.04C432.8 505.632 433.171 507.849 433.171 507.849C428.847 503.924 430.3 500.621 425.941 500.931C424.685 501.089 423.421 500.76 422.307 499.983C421.193 499.207 420.277 498.017 419.674 496.563C419.184 500.576 421.582 499.002 419.978 504.745C418.39 510.488 423.373 508.913 420.569 516.763C417.798 524.59 414.791 522.239 418.39 527.982C421.988 533.725 418.085 537.117 421.397 543.658C426.769 554.368 416.819 565.078 428.357 563.237C439.743 561.419 434.726 575.255 431.465 589.534C432.952 591.02 434.134 590.133 437.935 594.834C441.703 599.534 447.666 601.086 454.863 599.8C459.255 602.683 467.803 599.534 475.591 595.632C483.345 591.707 485.761 589.889 482.349 587.539C478.953 585.188 482.737 586.497 480.575 582.062C478.362 577.627 484.342 567.716 488.126 570.842C490.474 572.771 494.039 571.441 492.704 566.94C490.39 559.069 493.634 568.869 498.685 559.091C502.486 551.774 494.495 552.816 496.708 543.681C498.094 537.849 502.874 540.554 504.074 536.12C505.273 531.685 497.316 530.377 498.702 526.718C500.087 523.06 508.669 527.76 515.038 528.026C522.859 528.359 518.839 522.661 517.842 521.508C510.054 512.638 521.018 508.98 513.855 501.929C508.179 496.363 510.662 494.878 513.264 489.911C515.832 484.944 519.836 487.295 520.224 482.86C520.613 478.426 522.961 480.754 532.235 476.585C531.672 476.032 531.141 475.424 530.647 474.767C528.232 471.596 531.475 471.995 533.384 469.711C526.627 469.201 526.593 472.683 524.211 472.949C521.795 473.215 525.985 469.556 523.417 469.822C520.815 470.066 522.386 471.907 517.014 475.565C511.642 479.224 513.061 481.84 510.645 477.649C508.263 473.481 505.07 467.982 505.07 464.856C505.07 458.071 500.087 468.004 503.094 459.889C504.479 456.097 499.496 453.37 496.337 457.272C492.603 461.84 496.539 461.441 494.124 463.791C491.742 466.142 493.532 461.951 490.322 465.099C487.147 468.248 492.13 469.534 489.326 471.618C486.555 473.703 484.342 469.268 479.764 472.151C474.155 475.676 479.173 466.94 472.28 468.736C468.259 469.8 469.02 471.884 466.435 469.534C463.816 467.139 462.803 471.618 455.437 469.002Z" fill="#182F67"/>
<path fill-rule="evenodd" clip-rule="evenodd" d="M358.951 420.583C369.577 420.916 357.735 413.51 365.185 407.989C369.071 405.129 368.091 402.202 371.622 403.421C378.058 405.639 370.27 399.364 374.764 400.494C379.258 401.603 386.606 406.304 386.015 410.206C385.424 414.109 387.096 418.832 392.181 416.991C397.266 415.151 398.685 412.823 400.104 415.616C408.483 431.936 406.676 434.375 424.059 442.246C436.932 448.056 434.027 453.399 441.156 453.089C448.285 452.756 446.663 454.974 450.464 455.439C454.265 455.905 451.494 462.268 452.964 468.344C460.33 470.96 461.343 466.503 463.911 468.832C466.479 471.182 465.719 469.12 469.757 468.033C469.554 459.94 475.669 454.996 470.871 454.464C466.074 453.931 474.064 450.805 465.888 450.805C461.698 450.805 459.13 443.244 466.276 442.468C473.473 441.67 476.244 436.193 469.469 437.501C476.041 433.577 474.841 432.535 475.45 430.472C479.048 436.481 484.623 424.73 486.397 427.59L488.204 430.472C488.204 430.472 482.207 431.98 488.66 434.486C493.644 436.326 492.546 431.781 498.729 433.865C502.783 435.24 504.304 433.599 511.5 427.856C516.839 423.577 508.308 426.548 506.314 423.931C504.304 421.337 503.121 423.421 501.128 418.965C499.134 414.508 498.678 414.175 494.759 419.763C489.978 426.548 489.387 415.594 484.589 420.539C480.568 424.73 480.433 422.579 485.586 412.446C491.566 400.694 490.637 402.335 486.87 399.985L484.42 403.333C479.268 410.428 480.991 413.71 475.416 420.251C467.172 429.918 476.21 432.002 470.01 432.002C462.881 432.002 473.017 425.838 467.56 426.991C452.914 430.051 449.315 429.918 448.977 414.308L444.45 415.794L440.226 405.461L444.028 405.084L441.358 391.803L438.284 396.592C428.418 375.794 427.59 385.794 423.924 380.384C420.224 374.951 424.228 385.528 418.839 384.996C411.809 384.391 404.767 384.043 397.722 383.953C393.533 384.086 390.323 370.628 392.536 369.608C389.309 372.889 391.573 375.749 388.938 376.681C384.545 378.233 387.755 381.647 379.764 383.466C371.807 385.284 375.575 382.157 370.388 382.956C365.236 383.732 367.618 378.765 364.408 377.989C361.232 377.213 361.435 366.237 363.023 363.111C364.611 359.962 362.634 361.537 363.124 351.359C363.023 355.372 346.298 355.794 348.376 366.548C349.981 374.197 358.951 420.583 358.951 420.583Z" fill="#2D56BB"/>
<path fill-rule="evenodd" clip-rule="evenodd" d="M507.705 700.355C496.724 699.091 504.039 696.364 502.062 693.237C500.052 690.111 503.836 688.537 495.896 687.494C490.22 686.741 495.068 684.634 493.48 679.401C491.892 674.191 488.108 675.743 488.108 675.743C488.108 675.743 492.095 676.519 490.49 677.827C488.902 679.135 486.925 674.967 484.324 677.051C482.871 678.248 477.6 676.741 477.364 677.561C476.57 680.71 470.606 679.401 470.606 674.168C470.606 674.168 469.812 677.029 467.008 674.168C464.204 671.286 466.214 677.295 461.636 674.435C457.058 671.574 457.835 676.009 451.871 673.126C445.891 670.266 451.483 677.051 445.992 674.811C447.479 673.104 447.868 667.65 446.296 662.439C444.708 657.206 451.871 653.57 450.875 648.581C449.523 641.796 455.453 647.273 455.064 645.454C454.676 643.636 458.865 643.37 457.632 641.02C456.449 638.669 459.845 632.395 456.247 633.193C452.75 633.947 455.064 635.543 451.669 624.567C448.07 612.927 451.212 615.388 445.097 615.166C438.137 614.922 443.323 613.614 431.464 589.512C432.951 590.998 434.133 590.111 437.934 594.811C441.701 599.512 447.665 601.064 454.861 599.778C459.254 602.66 467.802 599.512 475.59 595.61C483.344 591.685 485.76 589.867 482.347 587.516C478.952 585.166 482.736 586.474 480.573 582.04C478.36 577.605 484.341 567.694 488.125 570.82C490.473 572.749 494.038 571.419 492.703 566.918C490.389 559.046 493.632 568.847 498.683 559.068C502.484 551.751 494.494 552.793 496.707 543.658C498.092 537.827 502.873 540.532 504.072 536.097C505.272 531.663 497.315 530.354 498.7 526.696C500.086 523.037 508.668 527.738 515.036 528.004C522.858 528.337 518.837 522.638 517.841 521.485C510.053 512.616 521.017 508.957 513.854 501.906C508.178 496.341 510.661 494.855 513.263 489.889C515.83 484.922 519.834 487.272 520.223 482.838C520.611 478.403 522.959 480.731 532.234 476.563C534.869 479.201 532.133 471.685 544.212 480.487C553.148 487.006 552.168 487.006 551.374 489.889C547.742 503.015 560.852 493.88 563.521 496.94C564.568 502.439 567.575 498.248 570.785 507.117C573.961 515.986 571.782 516.785 567.778 516.785C556.037 516.785 562 523.06 545.073 518.359C530.815 514.412 536.964 523.569 538.316 524.102C532.741 526.43 540.884 528.802 540.698 533.769C540.394 541.618 545.749 532.017 547.455 534.545C551.256 540.022 545.867 545.765 553.233 542.904C560.632 540.022 551.848 550.221 556.831 551.773C562.085 553.414 548.03 558.248 555.243 565.876C563.386 574.501 552.608 567.96 552.439 586.762C552.236 609.468 541.88 600.088 543.299 610.532C543.468 611.751 540.039 623.525 531.913 629.335C523.162 635.61 529.531 620.465 523.365 629.069C518.939 635.233 513.398 642.904 516.168 646.563C518.973 650.222 523.162 647.339 521.98 656.231C520.763 665.1 525.747 665.1 534.515 675.809C546.695 690.709 531.474 684.634 537.708 688.869C542.691 692.262 540.09 690.177 536.677 692.262C528.889 697.073 537.437 686.563 529.717 690.953C525.139 693.57 521.963 690.953 518.364 693.814C514.766 696.696 515.949 690.155 513.178 694.612C510.34 698.98 510.272 692.328 507.705 700.355Z" fill="#182F67"/>
<path fill-rule="evenodd" clip-rule="evenodd" d="M1001.49 468.469C1001 470.354 1001.84 472.394 1003.4 472.394C1004.95 472.394 1004.22 475.72 1005.9 475.897C1007.57 476.075 1003.09 477.006 1005.76 478.846C1008.43 480.687 1010.85 480.864 1009.43 482.15C1008.01 483.436 1006.45 479.755 1005.76 481.219C1005.07 482.682 1002.54 480.487 1002.96 482.328C1003.38 484.168 1001.2 485.742 1002.89 486.297C1004.58 486.851 1005 485.365 1005.56 487.228C1006.12 489.09 1007.74 491.751 1008.43 492.483C1009.16 493.215 1007.43 493.591 1009.55 494.5C1011.66 495.432 1009.55 498.58 1011.1 498.004C1012.65 497.45 1008.85 498.736 1011.52 500.576C1014.19 502.416 1011.79 501.884 1010.97 503.724C1010.1 505.565 1010.66 506.873 1012.22 506.319C1013.77 505.764 1011.22 506.873 1011.1 509.822C1010.97 512.771 1010.27 515.72 1011.96 516.829C1013.65 517.937 1013.21 517.206 1013.08 519.223C1012.94 521.241 1013.28 522.638 1014.01 521.352C1014.7 520.066 1013.01 523.569 1014.39 523.392C1015.81 523.215 1014.26 525.41 1014.56 527.45C1014.83 529.489 1015.61 530.687 1018.85 525.498C1019.21 524.9 1020.1 528.647 1021.79 525.144C1023.04 522.549 1023.77 520.354 1024.21 521.263C1024.65 522.172 1022.66 523.481 1023.91 523.658C1025.19 523.858 1026.81 521.995 1026.12 521.263C1025.56 520.155 1025.39 520.532 1026.12 521.263C1026.68 522.372 1029.68 522.372 1028.86 521.263C1027.99 520.155 1027.86 519.423 1029.28 519.046C1030.66 518.691 1031.22 517.028 1031.22 518.492C1031.22 519.977 1031.95 521.263 1032.91 520.709C1033.91 520.155 1033.47 522.727 1034.75 521.818C1036 520.886 1037 519.246 1035.17 519.8C1033.33 520.354 1033.06 519.8 1033.06 518.869C1033.06 517.937 1034.58 519.09 1034.24 517.583C1035.6 519.489 1038.16 518.048 1039.36 513.259C1040.39 506.673 1040.51 513.503 1040.71 506.54C1040.99 498.248 1040.68 495.986 1038.99 497.893C1039.72 497.095 1037.3 497.76 1037.67 493.724C1037.84 491.928 1036.63 487.183 1036.09 485.033C1034.18 477.538 1031.63 472.926 1028.1 466.673C1026.54 463.902 1023.67 463.281 1021.86 461.108C1019.95 458.824 1017.05 453.88 1015.73 452.594C1012.92 455.831 1016.66 456.851 1010.95 457.582C1005.24 458.314 1005.24 462.838 1001.49 468.469Z" fill="#182F67"/>
<path fill-rule="evenodd" clip-rule="evenodd" d="M444.488 674.965C437.528 677.05 433.929 668.69 432.341 672.105C430.72 675.498 429.537 667.404 420.566 670.797C414.991 672.903 412.61 667.404 409.619 668.18C405.227 669.333 405.463 662.438 402.254 657.205C399.061 651.994 403.251 646.495 395.091 643.635C386.914 640.753 386.914 649.888 382.911 649.378C378.958 648.868 376.339 653.812 371.964 650.42C367.605 647.027 365.797 654.344 362.03 645.985C358.229 637.648 358.043 644.433 355.425 637.116C353.803 632.571 354.276 638.025 352.063 632.149C350.847 629.023 349.85 631.639 347.282 628.491C344.68 625.364 344.275 630.331 343.481 621.972C342.687 613.613 337.703 613.347 337.501 609.178C337.298 605.01 334.426 610.309 330.541 600.309C325.32 586.983 325.962 599.001 321.57 594.056C318.462 590.553 317.972 591.174 318.174 588.047C316.789 590.93 319.171 591.639 316.299 593.901C312.566 587.537 314.576 585.187 311.975 585.453C309.407 585.719 307.025 579.178 307.227 575.786C307.43 572.393 305.808 567.426 301.855 558.823C297.868 550.198 299.051 556.983 294.659 549.666C290.3 542.349 282.411 544.743 283.306 539.488C284.691 531.395 276.734 530.619 279.319 527.737C281.921 524.854 277.14 528.003 278.728 521.728C280.35 515.453 283.306 509.976 281.921 507.094C280.535 504.233 282.917 505.009 283.509 498.757C283.897 494.544 282.985 496.894 279.522 497.448C274.775 498.247 276.16 491.196 274.15 489.887C272.173 488.579 275.231 488.579 272.376 486.229C270.788 484.921 271.126 482.193 268.777 480.176C268.507 478.867 268.609 477.36 267.426 476.85C264.791 475.697 266.835 469 264.233 469.799C261.665 470.575 258.253 465.098 259.047 459.621C259.841 454.144 257.273 459.111 256.479 451.528C255.651 443.967 253.675 442.393 257.07 443.679C260.432 444.987 257.307 441.107 259.486 438.224C262.054 439.71 264.301 440.419 265.129 443.657C267.511 453.058 274.994 450.486 276.684 449.754C278.339 449.023 279.42 447.648 281.397 446.074C287.208 440.22 287.04 439.932 288.526 441.639C290.047 443.346 293.645 445.874 289.641 448.158C294.101 449.266 291.229 453.834 288.881 455.674C296.804 461.284 297.26 465.985 300.96 462.836C302.379 470.93 303.697 475.808 310.268 473.723C316.84 471.639 313.867 478.934 322.415 483.635C334.984 490.53 332.247 481.728 338.345 484.145C342.924 485.985 343.532 481.284 346.133 480.752C348.701 480.242 351.286 480.486 348.904 481.528C346.522 482.57 344.444 485.32 349.107 483.635C354.918 481.55 350.796 477.071 349.799 470.264C350.847 474.588 352.266 471.506 354.783 470.663C357.824 469.643 355.053 462.659 359.31 458.845C364.057 454.61 367.52 459.555 368.973 457.005C370.021 455.165 376.795 456.473 377.589 459.932C378.772 465.164 394.314 464.366 399.956 472.792C405.565 481.218 406.68 474.943 411.596 478.158C416.512 481.351 413.741 485.652 416.208 488.003C417.593 489.311 418.184 493.346 419.705 496.561C419.215 500.575 421.614 499.001 420.009 504.743C418.421 510.486 423.404 508.912 420.6 516.761C417.83 524.588 414.823 522.238 418.421 527.981C422.019 533.723 418.117 537.116 421.428 543.657C426.8 554.366 416.85 565.076 428.388 563.236C439.774 561.418 434.757 575.253 431.497 589.533C443.339 613.613 438.17 614.943 445.13 615.187C451.228 615.431 448.103 612.948 451.701 624.588C455.097 635.564 452.783 633.968 456.279 633.214C459.878 632.415 456.482 638.69 457.665 641.041C458.881 643.391 454.692 643.657 455.097 645.475C455.502 647.294 449.556 641.817 450.907 648.602C451.904 653.568 444.741 657.227 446.329 662.46C447.917 667.671 447.512 673.125 446.025 674.832L444.488 674.965Z" fill="#182F67"/>
<path fill-rule="evenodd" clip-rule="evenodd" d="M265.095 443.614C267.477 453.016 274.961 450.444 276.65 449.712C272.781 443.903 270.771 443.326 265.095 443.614Z" fill="#182F67"/>
<path fill-rule="evenodd" clip-rule="evenodd" d="M259.908 416.342C262.644 417.517 263.506 419.092 265.246 420.843C266.969 422.595 267.594 421.398 267.628 425.744C267.696 431.442 270.922 428.626 270.956 433.97C271.057 443.815 281.058 440.976 281.345 446.032C279.369 447.606 278.271 448.981 276.632 449.713C272.764 443.903 270.753 443.327 265.077 443.615C264.249 440.378 262.002 439.668 259.435 438.183C255.313 433.748 259.992 433.194 252.035 430.843C244.349 428.582 251.697 423.393 246.73 418.426C254.096 417.717 256.343 417.495 259.908 416.342Z" fill="#182F67"/>
<path fill-rule="evenodd" clip-rule="evenodd" d="M294.488 604.811C304.945 598.802 298.441 588.026 308.78 594.035C314.254 595.92 311.027 599.756 312.176 600.82C314.186 602.638 306.871 602.771 308.307 611.042C297.631 614.146 306.5 604.102 294.488 604.811Z" fill="#182F67"/>
<path fill-rule="evenodd" clip-rule="evenodd" d="M281.366 446.03C287.178 440.177 287.009 439.888 288.495 441.596C290.016 443.303 293.614 445.831 289.61 448.115C294.07 449.223 291.198 453.791 288.85 455.631C296.773 461.241 297.229 465.942 300.929 462.793C297.567 452.86 298.783 450.154 299.273 449.511C299.763 448.846 301.149 455.099 302.111 453.614C303.564 451.33 299.375 448.203 301.757 444.212C304.173 440.221 300.067 439.578 302.872 435.454C304.494 433.059 307.433 435.254 308.21 434.478C308.97 433.746 305.237 426.629 303.75 428.536C302.23 430.42 301.841 427.294 297.905 423.392C293.969 419.489 292.127 412.749 287.549 407.494C282.042 411.463 280.133 415.52 270.352 408.491C270.74 411.197 272.666 417.25 271.703 418.159C268.966 420.775 266.551 414.145 259.895 416.318C262.631 417.494 263.493 419.068 265.233 420.82C266.956 422.571 267.581 421.374 267.615 425.72C267.682 431.418 270.909 428.602 270.943 433.946C271.061 443.813 281.062 440.975 281.366 446.03Z" fill="#182F67"/>
<path fill-rule="evenodd" clip-rule="evenodd" d="M36.4056 442.794C36.4056 442.55 33.0776 440.466 32.6383 437.894C32.1991 435.322 31.2193 437.894 29.1076 434.39C26.9959 430.887 28.4149 431.264 27.7223 429.978C26.9959 428.67 26.5735 426.652 28.2797 428.869C29.9691 431.087 31.3544 431.087 29.8002 429.047C28.2798 427.029 27.2999 427.206 27.2999 424.989C27.2999 422.772 26.1849 421.84 27.2999 420.554C28.4149 419.246 29.2427 417.96 27.9926 417.96C26.7424 417.96 26.8777 415.388 27.1311 413.348C27.4352 411.33 24.4618 408.559 25.6106 408.359C26.7256 408.182 27.8574 406.519 26.5735 406.342C25.7384 406.21 24.9601 405.719 24.3605 404.945C24.3605 404.945 25.8471 404.679 24.597 403.016C23.3131 401.353 25.2896 400.399 26.8438 399.867C27.9588 399.49 32.1822 400.976 32.8748 403.016C33.6688 405.299 34.8513 408.359 34.8513 410.776C34.8513 413.171 36.2704 411.885 36.6927 415.388C36.8955 417.029 41.4736 419.801 41.6088 424.413C41.7439 429.025 39.7675 432.173 39.362 435.1C38.9397 438.071 37.9429 439.712 36.828 440.089C35.713 440.488 37.9091 442.262 36.4056 442.794Z" fill="#182F67"/>
<path fill-rule="evenodd" clip-rule="evenodd" d="M36.4052 442.793C36.3714 443.458 35.5099 444.256 36.3039 444.523C37.4189 444.899 39.4123 444.545 39.8009 447.294C40.2232 450.066 41.3551 448.403 41.9126 450.997C42.4701 453.569 44.1593 453.946 44.7168 455.787C45.2743 457.627 46.5583 455.786 46.0008 453.747C45.4433 451.729 46.8286 455.055 47.8084 453.569C48.8051 452.106 47.5381 454.123 48.8051 455.055C50.089 455.986 50.3593 456.895 48.5348 455.986C46.6934 455.055 46.0007 456.518 45.8656 457.826C45.6966 459.135 47.8084 460.044 48.2477 461.884C48.6869 463.724 48.8051 463.924 50.2242 460.953C51.6432 457.981 52.2007 464.656 54.8699 462.416C55.8666 461.574 56.6775 461.862 59.3636 464.079C62.0328 466.297 60.7826 464.811 62.7254 464.079C64.7019 463.325 60.6138 464.257 63.2829 467.76C64.1445 468.891 62.32 467.383 60.2083 465.742C58.0966 464.101 58.7892 466.296 56.12 464.456C53.4508 462.616 52.8933 465.919 51.4742 464.633C50.089 463.325 49.3626 467.405 48.1125 467.206C46.8623 467.006 46.5582 468.869 47.6901 469.6C48.8051 470.354 49.3794 471.817 49.3794 473.48C50.7985 470.908 55.4443 478.27 52.488 479.755C49.5485 481.219 55.326 483.059 57.2688 486.03C58.4851 487.849 59.3805 489.356 59.8028 486.962C60.2252 484.567 61.4246 486.829 61.5597 489.755C61.6949 492.704 63.4687 491.374 63.1815 489.157C62.9112 486.939 64.0431 488.425 65.7156 490.997C67.4049 493.569 66.0197 488.979 65.4453 488.048C64.8878 487.117 65.2764 486.385 64.4486 484.367C63.587 482.327 65.0061 480.864 64.0262 480.132C63.0295 479.379 61.7794 475.698 62.9112 476.984C64.0431 478.27 64.2965 476.984 64.6006 478.824C64.8709 480.664 65.8508 477.161 67.2698 476.607C68.6889 476.053 67.405 474.944 66.5772 474.39C65.7156 473.835 67.1346 472.172 65.5804 470.886C64.0262 469.578 66.9995 469.578 68.6889 469.423C70.3782 469.223 70.8005 468.669 71.358 469.977C71.9155 471.263 73.892 474.589 73.74 471.44C73.6049 468.314 74.7368 468.669 73.1826 465.897C71.6284 463.126 71.0708 462.017 69.5166 462.017C67.9624 462.017 66.9826 460.354 66.4082 459.245C65.8507 458.137 64.2965 457.206 62.4889 457.405C60.6475 457.605 63.1816 453.347 62.3538 453.17C61.4922 452.993 61.9314 450.598 60.7995 450.398C59.6846 450.221 58.6879 450.398 59.8028 449.489C60.9178 448.558 61.188 448.935 59.9379 446.718C58.6878 444.5 60.4955 443.414 61.1881 444.323C61.9146 445.254 62.9113 446.718 62.3369 447.627C61.7456 448.558 61.7456 448.735 63.1646 448.181C64.5837 447.627 63.1646 445.964 61.7456 442.46C60.3603 438.957 60.9178 440.62 59.3636 438.957C57.8094 437.294 58.8062 435.809 58.1135 434.9C57.4209 433.968 59.4987 431.573 58.2486 430.11C59.9379 430.664 60.3603 431.041 60.6306 432.682C60.9347 434.345 62.9113 432.86 63.7391 433.791C64.6007 434.722 63.0464 434.722 64.4655 436.008C65.8508 437.294 65.8508 436.186 65.4284 435.276C65.0399 434.345 66.2899 434.345 67.1515 436.008C67.9793 437.671 67.9793 435.631 66.9825 434.168C66.0196 432.704 67.2866 432.505 68.824 434.345C70.3782 436.186 70.0742 433.414 68.6889 432.505C67.2698 431.574 67.8273 430.842 68.2665 429.002C68.7058 427.161 70.9357 429.201 71.3749 426.607C71.7635 424.013 73.8751 427.339 74.7367 424.766C75.2942 423.059 78.0985 423.458 77.541 424.944C76.9835 426.407 79.0953 424.766 80.9367 425.676C82.7443 426.607 87.6604 423.458 86.5454 424.567C88.2685 421.973 86.8156 419.778 86.9339 417.915C87.069 416.075 89.0456 416.984 89.4679 414.412C89.8903 411.84 88.7754 411.862 87.2212 410.376C85.6669 408.891 84.9405 409.8 85.8021 412.372C86.6637 414.966 80.1596 411.995 80.8861 413.303C81.5787 414.611 78.6392 414.966 77.3553 413.857C76.1052 412.749 75.5476 414.035 73.9934 412.749C72.4392 411.463 72.8785 413.68 70.885 411.817C68.8916 409.955 67.5232 411.441 66.3913 413.281C65.2426 415.121 63.7222 413.103 60.0225 414.234C58.6034 414.656 59.0595 414.012 58.6372 416.607C58.2148 419.179 57.387 419.001 55.4105 417.161C53.4339 415.321 53.8563 417.538 52.3021 420.11C50.7479 422.704 47.9435 422.505 45.5446 422.882C43.1626 423.259 43.1626 421.773 41.6253 424.345C41.7604 428.957 39.784 432.106 39.3785 435.032C38.9562 438.004 37.9594 439.644 36.8445 440.021C35.7126 440.487 37.9087 442.261 36.4052 442.793Z" fill="#182F67"/>
<path fill-rule="evenodd" clip-rule="evenodd" d="M15.2894 233.99C15.6949 233.059 16.2692 233.702 17.6883 232.793C19.0736 231.862 15.5766 232.793 15.2894 232.239C15.0022 231.684 14.1745 232.239 14.2927 231.13C14.4448 230.021 14.2927 229.467 15.83 230.021C17.3842 230.576 17.5194 229.09 18.4992 229.29C19.496 229.467 21.9286 227.649 22.5874 225.964C24.4626 221.197 21.5401 235.653 25.7297 226.784C25.8311 226.097 27.6049 228.026 28.5341 228.292C30.3755 228.802 34.2441 225.365 36.5585 227.782C38.3661 229.689 36.7612 230.088 36.9808 233.613C35.7645 236.939 32.335 231.13 29.1253 235.033C25.9662 238.957 25.6452 233.724 15.2894 233.99Z" fill="#182F67"/>
<path fill-rule="evenodd" clip-rule="evenodd" d="M24.716 217.627C24.0233 213.502 22.2664 211.396 24.8512 208.314C27.4528 205.254 23.7024 203.946 25.9999 199.245C28.2806 194.545 27.1486 198.203 31.2707 193.569C33.9737 190.531 33.9737 193.724 34.4974 193.702C35.6124 193.658 36.153 197.361 38.1633 197.494C40.1737 197.627 39.4135 202.571 41.238 202.46C43.0118 202.327 43.9747 205.21 45.2586 203.879C46.5425 202.571 48.1305 204.589 49.1441 200.154C49.7691 197.36 47.8602 194.722 48.1811 192.172C50.7152 189.112 50.8842 187.471 54.2122 188.292C59.2972 189.533 61.1386 188.137 60.3108 189.91C59.2296 192.327 66.8823 191.174 67.2371 192.682C69.4501 191.086 71.1227 191.019 73.1837 189.644C71.1734 195.143 76.3597 190.243 74.3325 194.988C71.4268 201.706 75.4137 193.192 76.2414 204.301C72.1194 205.831 80.7351 212.815 74.1973 212.815C68.2001 212.815 72.8796 218.247 68.3521 217.582C51.07 216.074 53.5364 208.89 51.0024 211.973C48.4683 215.055 46.5763 209.29 42.488 210.021C38.5181 210.731 30.9497 203.702 24.716 217.627Z" fill="#182F67"/>
<path fill-rule="evenodd" clip-rule="evenodd" d="M48.2126 192.149C48.939 187.115 46.7598 186.827 46.4557 188.468C46.1516 190.086 44.1075 189.843 43.9217 187.492C43.7865 185.541 41.2525 185.208 41.1511 183.058C41.0835 182.193 43.0939 181.993 43.0939 181.993C43.0939 181.993 38.1103 181.062 39.901 178.557C41.0836 176.849 37.6879 176.472 41.1849 175.763C44.6818 175.053 43.1952 172.193 45.8306 173.08C47.9085 173.811 46.6247 170.996 48.7702 172.614C50.9157 174.255 49.8514 170.397 52.2334 171.506C54.6492 172.614 53.4159 169.665 55.7641 172.082C58.1123 174.499 56.8453 170.02 60.1226 173.723C63.9575 178.091 64.9373 173.856 68.7384 175.874C70.6473 176.894 72.3367 176.073 72.8942 174.676C77.219 177.581 71.5089 172.858 73.232 189.643C71.1879 191.018 69.4986 191.084 67.2855 192.681C66.9308 191.151 59.261 192.304 60.3591 189.909C61.1869 188.135 59.3286 189.51 54.2605 188.29C50.9156 187.448 50.7466 189.089 48.2126 192.149Z" fill="#182F67"/>
<path fill-rule="evenodd" clip-rule="evenodd" d="M36.9987 233.591C39.1779 231.64 38.519 235.453 40.4955 234.544C42.4721 233.635 43.0296 236.939 44.2967 239.422C51.0541 237.981 49.314 245.498 54.551 240.664C57.4567 237.981 58.1156 241.573 59.0785 240.154C60.0753 238.668 57.3216 238.469 58.69 233.369C60.2779 227.36 61.0381 230.509 62.7781 227.294C64.5013 224.101 67.7956 229.334 69.0457 224.566C70.2958 219.799 65.7514 223.591 68.4206 217.582C51.1385 216.074 53.605 208.89 51.071 211.972C48.537 215.054 46.6448 209.289 42.5566 210.021C38.5359 210.73 30.9676 203.702 24.7338 217.626C24.2439 225.342 26.0854 224.079 25.7644 226.784C25.8658 226.096 27.6396 228.025 28.5687 228.291C30.4101 228.801 34.2788 225.365 36.5932 227.781C38.3839 229.666 36.7621 230.065 36.9987 233.591Z" fill="#182F67"/>
<path fill-rule="evenodd" clip-rule="evenodd" d="M103.442 407.56C102.327 405.542 103.999 406.185 102.884 405.808C101.769 405.431 103.577 405.986 102.58 403.591C101.617 401.196 99.5057 400.088 100.469 399.711C101.465 399.334 99.0833 398.957 99.5057 398.048C99.8942 397.116 99.3368 395.099 101.06 394.544C102.749 393.99 101.753 395.853 102.31 392.327C102.868 388.802 103.999 387.715 104.557 385.32C105.114 382.926 105.672 383.857 105.976 384.411C106.246 384.943 107.784 383.48 107.665 381.263C101.685 380.331 104.929 378.868 101.398 378.868C97.9008 378.868 93.5422 378.491 92.5624 376.096C91.5656 373.702 90.873 374.611 88.339 375.165C85.8049 375.719 81.3113 377.56 79.3347 381.263C77.3582 384.943 77.7805 383.103 74.689 382.549C71.5975 381.994 68.658 380.531 67.5262 381.44C66.3943 382.349 64.4177 382.903 61.7485 381.263C59.0793 379.6 58.5219 379.799 56.9677 379.955C55.4135 380.132 54.4336 379.578 54.5518 377.737C54.6194 377.094 53.893 376.562 52.9977 376.096C52.001 377.937 50.1934 377.737 51.3083 381.44C52.4233 385.143 52.4232 386.784 53.5551 389.001C54.6701 391.218 54.1126 391.595 53.2848 393.436C52.4233 395.276 54.6701 396.207 53.5551 398.602C52.4401 400.997 53.2849 400.62 55.5317 402.66C57.7786 404.7 60.7181 409.91 60.0254 414.3C63.7251 413.17 65.2455 415.21 66.3943 413.347C67.5093 411.507 68.8945 410.043 70.888 411.884C72.8814 413.724 72.4421 411.507 73.9963 412.815C75.5505 414.123 76.1081 412.815 77.3582 413.924C78.6422 415.032 81.5816 414.677 80.889 413.369C80.1626 412.083 86.6666 415.032 85.805 412.438C84.9435 409.866 85.6699 408.957 87.2241 410.442C88.4742 408.38 88.9134 408.203 90.4507 407.826C91.988 407.449 92.9848 404.5 95.2316 405.808C97.4785 407.094 100.418 407.693 103.442 407.56Z" fill="#182F67"/>
<path fill-rule="evenodd" clip-rule="evenodd" d="M31.3557 347.16C31.3557 347.16 33.2984 346.051 34.9878 343.28C36.7109 340.508 36.5419 339.045 38.3833 336.073C40.191 333.124 41.1878 332.393 41.0526 329.067C40.9175 325.763 40.191 325.009 41.7452 322.991C43.2995 320.974 45.0057 319.266 45.0057 319.266C48.9588 313.413 50.817 320.064 52.2023 318.18C53.5876 316.295 52.8275 319.421 56.2231 318.047C59.6187 316.672 58.7571 320.02 60.514 317.271C62.271 314.521 66.2578 318.291 66.8829 316.872C68.4709 313.213 74.3667 316.872 75.5999 315.12C78.5056 310.996 82.8304 316.029 83.8102 315.164C84.1988 314.832 84.7394 314.92 85.5672 314.965C87.1214 316.428 87.7802 321.528 88.4729 321.528C89.1655 321.528 90.3143 324.477 90.5846 326.694C90.8887 328.911 94.1153 328.912 93.4227 330.198C92.6963 331.484 96.3622 333.147 95.2303 335.164C94.1154 337.204 96.0918 338.867 95.3654 340.331C94.6728 341.794 96.5142 343.102 96.227 344.943C95.9567 346.783 98.4739 346.605 98.0347 347.714C97.6461 348.823 99.5888 349.932 99.0314 350.663C98.4739 351.395 100.079 354.3 99.3692 355.408C103.981 361.195 106.6 358.18 105.839 356.096C109.928 356.428 108.052 351.883 113.695 355.342C114.05 357.182 112.732 357.116 112.732 357.116C112.732 357.116 112.597 359.51 113.036 360.996C113.475 362.481 111.921 361.728 111.229 362.282C110.502 362.836 109.505 365.231 109.809 364.122C110.08 363.014 110.502 360.042 108.813 361.528C107.123 363.014 109.505 362.459 108.678 364.3C107.816 366.14 109.235 365.408 107.951 367.249C106.701 369.089 107.258 369.843 107.123 372.038C106.988 374.233 107.259 375.364 106.988 377.027C106.363 380.641 107.546 379.045 107.681 381.262C101.701 380.331 104.944 378.867 101.413 378.867C97.9164 378.867 93.5578 378.49 92.578 376.096C91.5812 373.701 90.8886 374.61 88.3546 375.164C85.8205 375.719 81.3269 377.559 79.3503 381.262C77.3738 384.943 77.7961 383.102 74.7046 382.548C71.613 381.994 68.6736 380.53 67.5418 381.439C66.4099 382.348 64.4333 382.903 61.7641 381.262C59.0949 379.599 58.5375 379.799 56.9833 379.954C55.4291 380.131 54.4491 379.577 54.5674 377.736C54.635 377.093 53.9086 376.561 53.0133 376.096C51.3239 375.209 48.8912 374.521 49.3473 373.679C50.0737 372.393 51.8138 371.04 50.9016 370.175C48.9588 368.335 48.4013 373.479 47.2356 372.016C46.1206 370.552 43.7387 365.94 43.3164 367.404C42.8941 368.867 40.512 366.096 39.2281 365.009C40.2248 363.169 41.7621 363.723 40.2248 361.705C38.6705 359.665 37.4205 359.665 37.2853 357.648C37.1164 355.63 34.312 355.63 34.0586 353.213C33.7208 350.841 31.1868 350.087 31.3557 347.16Z" fill="#182F67"/>
<path fill-rule="evenodd" clip-rule="evenodd" d="M116.248 252.037C108.224 237.226 113.241 235.652 115.657 239.51C117.701 242.769 120.607 239.909 123.242 239.133C129.375 237.359 126.57 232.991 125.253 232.392C121.333 230.618 122.583 229.177 120.928 228.312C119.272 227.448 117.465 228.778 116.671 228.201C112.616 225.319 119.019 226.827 114.289 223.634C112.532 222.459 112.143 224.299 109.71 222.991C104.068 219.975 101.196 218.623 102.125 217.359C102.987 216.206 103.274 215.274 100.605 213.124C94.7935 208.445 104.372 206.206 97.6991 205.363C96.1787 205.164 95.2327 201.616 93.1379 202.702C90.5025 204.099 86.7015 211.173 87.0056 207.181C87.2083 204.365 76.3795 205.674 76.2781 204.277C72.1561 205.807 80.7718 212.791 74.234 212.791C68.2367 212.791 72.9162 218.224 68.3888 217.558C65.7196 223.567 70.264 219.776 69.0139 224.543C67.7637 229.31 64.4526 224.077 62.7463 227.27C60.9894 230.485 60.2461 227.337 58.6581 233.346C57.3066 238.445 60.0434 238.645 59.0467 240.13C58.0838 241.55 57.4248 237.957 54.5191 240.64C49.2652 245.474 51.0223 237.958 44.2648 239.399C45.2953 241.705 44.5688 242.68 46.5116 245.164C48.4544 247.647 51.2249 252.592 46.0555 255.142C40.8691 257.691 46.1907 259.554 46.8833 269.088C54.6037 263.589 46.2244 270.818 56.4112 265.851C69.149 259.643 74.9266 275.053 83.4072 269.177C91.8877 263.301 86.1102 273.745 91.1952 269.066C96.2464 264.366 93.1717 273.102 96.9727 266.76C100.149 261.439 98.2567 267.093 103.646 265.252C106.095 264.41 112.582 269.443 111.755 264.077C111.079 259.643 105.926 249.244 116.248 252.037Z" fill="#182F67"/>
<path fill-rule="evenodd" clip-rule="evenodd" d="M225.295 410.375C214.01 429.488 209.161 415.364 203.248 418.846C195.258 423.546 190.274 418.579 189.294 418.846C185.409 419.865 189.886 415.187 183.314 414.921C176.742 414.655 180.932 409.444 175.171 410.22C169.36 410.996 169.799 402.127 165.998 406.318C162.197 410.486 155.051 405.01 149.273 410.486C143.462 415.963 139.509 412.327 135.117 419.112C130.724 425.897 118.189 413.103 115.588 419.621C113.02 426.14 120.369 422.504 126.146 425.098C122.97 426.673 113.02 426.406 117.209 428.491C120.673 430.242 108.965 431.196 107.648 429.799C105.637 427.715 104.252 432.925 103.07 430.065C101.887 427.183 98.6773 432.682 95.704 434.5C92.6969 436.34 90.923 433.99 92.3083 437.892C94.42 443.812 88.2201 443.746 96.8865 443.391C90.7204 446.251 98.6603 447.826 97.275 449.4C95.8897 450.974 99.8429 452.016 97.6636 452.792C95.4505 453.591 100.671 458.535 98.2549 458.025C95.8729 457.515 98.6435 463.258 95.6871 457.515C94.4708 455.187 92.0888 457.515 94.4708 460.132C96.8866 462.748 92.8828 469.799 95.6871 466.939C98.4577 464.056 98.6604 466.939 100.873 468.247C106.313 471.484 100.248 476.872 103.847 476.872C106.854 476.872 106.262 480.531 108.425 479.489C110.587 478.447 110.401 483.923 108.222 482.881C106.043 481.839 107.04 484.721 107.225 486.03C107.192 485.852 114.287 484.81 114.186 485.497C113.797 488.358 106.229 487.072 108.019 490.198C108.78 491.528 112.412 488.358 113.594 490.464C113.898 490.974 119.727 490.908 119.575 488.89C119.777 491.24 126.737 488.89 124.355 491.506C121.973 494.123 129.542 501.684 130.522 498.557C131.214 496.385 139.695 496.207 138.107 491.24C136.823 487.316 141.469 486.54 145.067 489.932C148.632 493.325 151.233 491.24 155.625 499.067C157.045 501.617 165.981 498.291 165.593 498.025C168.955 500.376 164.562 495.409 170.374 489.156C176.151 482.881 174.327 490.996 180.341 490.996C181.861 490.996 183.449 485.475 184.902 489.422C187.706 496.983 181.338 491.772 183.314 498.668C188.5 500.331 187.504 499.6 189.886 496.717C189.683 493.325 189.294 492.016 189.497 486.03C192.504 484.988 196.069 490.996 202.657 483.413C213.807 490.996 218.267 478.203 232.525 478.203C241.496 478.203 238.657 472.216 242.847 478.757C245.584 475.342 243.844 473.879 249.25 474.544C258.626 475.719 255.416 477.937 260.011 477.937C265.586 477.937 261.008 485.764 268.762 480.242C268.491 478.934 268.593 477.426 267.41 476.917C264.775 475.764 266.819 469.067 264.217 469.865C261.65 470.642 258.237 465.165 259.031 459.688C259.825 454.211 257.257 459.178 256.463 451.595C255.636 444.034 253.659 442.46 257.055 443.746C260.416 445.054 257.291 441.174 259.47 438.291C255.348 433.857 260.028 433.302 252.071 430.952C244.384 428.69 251.733 423.502 246.766 418.535C237.728 417.426 246.107 408.225 241.327 410.686C233.42 414.677 229.619 408.513 225.295 410.375Z" fill="#2D56BB"/>
<path fill-rule="evenodd" clip-rule="evenodd" d="M199.851 378.07C203.973 383.126 203.077 376.917 212.555 386.718C218.332 392.705 219.312 388.714 221.103 393.969C222.555 398.204 224.279 395.21 224.566 403.237C224.701 407.361 225.022 409.49 225.292 410.399C229.617 408.536 233.401 414.7 241.29 410.62C246.071 408.137 237.726 417.405 246.764 418.514C254.13 417.805 256.326 417.538 259.89 416.363C266.563 414.168 268.962 420.82 271.699 418.204C272.662 417.295 270.736 411.241 270.347 408.536C255.988 398.226 262.458 397.051 254.451 393.459C242.405 388.071 244.72 397.96 236.239 388.824C228.35 380.288 222.082 385.764 210.798 378.514C202.858 373.37 199.851 378.07 199.851 378.07Z" fill="#182F67"/>
<path fill-rule="evenodd" clip-rule="evenodd" d="M219.095 560.731C236.783 561.862 235.262 564.368 248 572.86C258.559 579.911 251.396 576.519 264.336 593.747C272.952 605.21 275.892 604.7 294.491 604.789C304.948 598.78 298.444 588.004 308.783 594.013C309.121 593.326 309.544 589.556 311.757 593.747C315.355 600.554 313.412 596.097 316.318 593.858C312.584 587.494 314.595 585.144 311.993 585.41C309.425 585.676 307.043 579.135 307.246 575.742C307.449 572.35 305.827 567.383 301.874 558.78C297.887 550.155 299.07 556.94 294.677 549.623C290.319 542.305 282.429 544.7 283.325 539.445C284.71 531.352 276.753 530.576 279.338 527.693C281.939 524.811 277.159 527.96 278.747 521.685C280.368 515.41 283.325 509.933 281.939 507.05C280.554 504.19 282.936 504.966 283.527 498.713C283.916 494.501 283.004 496.851 279.541 497.405C274.793 498.203 276.179 491.152 274.168 489.844C272.192 488.536 275.25 488.536 272.395 486.186C270.807 484.877 271.144 482.15 268.796 480.132C261.042 485.676 265.62 477.826 260.045 477.826C255.467 477.826 258.66 475.587 249.284 474.434C243.878 473.769 245.618 475.232 242.881 478.647C241.919 480.953 239.08 483.858 236.901 485.942C231.749 490.909 238.117 491.152 236.513 503.436C234.925 515.698 240.499 514.146 234.739 519.623C228.978 525.099 223.353 530.221 213.977 539.09C215.733 545.343 219.264 557.228 219.095 560.731Z" fill="#182F67"/>
<path fill-rule="evenodd" clip-rule="evenodd" d="M99.3534 355.41C101.803 356.652 99.8434 354.656 101.989 354.789C104.134 354.923 104.101 346.563 104.726 345.92C106.01 344.634 106.837 348.271 107.868 347.228C108.915 346.186 109.625 348.847 110.807 347.628C111.99 346.386 115.554 348.093 113.409 346.053C111.263 344.013 112.091 340.044 110.368 337.118C108.611 334.191 110.892 334.435 108.561 329.224C106.212 323.991 108.459 323.282 107.141 321.707C105.79 320.133 108.138 318.714 105.79 318.515C103.442 318.315 103.847 315.521 101.803 316.231C99.7589 316.94 100.553 313.437 98.5088 313.814C95.6707 314.346 94.4544 306.585 90.062 312.949C88.6768 314.945 86.8861 315.011 85.5684 314.967C87.1226 316.43 87.7814 321.53 88.474 321.53C89.1666 321.53 90.3154 324.479 90.5857 326.696C90.8898 328.914 94.1165 328.914 93.4238 330.2C92.6974 331.486 96.3633 333.149 95.2315 335.166C94.1165 337.206 96.093 338.869 95.3665 340.333C94.6739 341.796 96.5153 343.104 96.2282 344.945C95.9579 346.785 98.475 346.608 98.0358 347.716C97.6473 348.825 99.59 349.934 99.0325 350.665C98.475 351.397 100.08 354.302 99.3534 355.41Z" fill="#182F67"/>
<path fill-rule="evenodd" clip-rule="evenodd" d="M184.328 601.374C182.351 596.452 179.547 588.558 176.185 580.975C172.79 573.414 179.547 575.631 176.152 570.155C176.979 561.153 178.567 564.013 178.753 557.228C178.939 550.443 180.527 551.529 180.628 545.631L189.666 546.186L188.416 549.889C183.635 548.314 187.521 552.549 185.713 553.325C183.939 554.124 184.328 550.975 182.537 551.751C178.517 553.503 181.422 563.414 181.946 563.769C186.136 566.629 179.175 571.308 180.358 573.17C182.335 576.319 187.183 567.051 186.136 577.871C185.308 585.942 184.514 593.547 184.328 601.374Z" fill="#182F67"/>
<path fill-rule="evenodd" clip-rule="evenodd" d="M187.318 523.858C187.081 530.199 183.72 528.492 183.517 533.459C183.314 538.425 180.713 539.733 180.611 545.631L189.649 546.186C193.079 539.49 188.686 542.084 191.271 538.181C193.873 534.257 193.873 539.733 196.052 537.139C198.265 534.545 193.636 534.434 196.441 531.662C199.633 528.514 194.853 521.751 193.079 521.219C191.288 520.665 190.089 522.306 187.318 523.858Z" fill="#182F67"/>
<path fill-rule="evenodd" clip-rule="evenodd" d="M86.5163 424.634C85.4013 425.743 88.6617 425.189 89.0502 426.475C89.4726 427.761 89.2192 431.264 91.1619 430.532C93.1385 429.779 93.5439 428.315 96.078 426.652C98.612 424.989 98.3586 427.938 96.5003 428.315C94.6927 428.692 93.8312 430.887 92.1419 433.104C90.4525 435.322 92.9696 434.767 94.811 432.927C96.6186 431.087 98.4093 429.512 100.724 427.938C103.038 426.364 101.214 424.701 102.903 423.969C104.592 423.237 103.461 420.466 106.011 420.089C108.562 419.712 108.985 423.038 110.235 421.02C111.485 419.002 114.391 423.614 114.695 418.537C114.999 417.251 114.002 418.714 111.063 415.965C108.089 413.193 104.559 409.579 103.444 407.561C100.643 407.762 97.8417 407.165 95.2334 405.809C92.9865 404.501 92.0066 407.472 90.4524 407.827C88.8982 408.182 88.4759 408.381 87.2258 410.444C88.78 411.907 89.8949 411.885 89.4726 414.479C89.0503 417.073 87.0568 416.142 86.9385 417.982C86.8203 419.823 88.2394 422.04 86.5163 424.634Z" fill="#182F67"/>
<path fill-rule="evenodd" clip-rule="evenodd" d="M183.331 498.602C184.024 500.997 179.631 501.418 184.125 504.744C190.105 509.179 181.354 506.585 187.318 523.857C190.088 522.305 191.271 520.664 193.096 521.174C194.869 521.707 199.667 528.492 196.457 531.618C193.653 534.39 198.265 534.5 196.069 537.095C193.89 539.711 193.889 534.234 191.288 538.137C188.72 542.039 193.095 539.445 189.666 546.141L188.416 549.844C194.396 554.279 196.069 554.855 198.282 552.771C200.461 550.665 213.959 539.068 213.959 539.068C223.335 530.199 228.944 525.077 234.721 519.6C240.499 514.123 234.924 515.675 236.495 503.414C238.117 491.152 231.748 490.886 236.884 485.919C239.063 483.835 241.901 480.953 242.864 478.624C238.674 472.106 241.513 478.07 232.542 478.07C218.284 478.07 213.841 490.864 202.674 483.281C196.069 490.864 192.504 484.855 189.514 485.897C189.311 491.906 189.717 493.214 189.903 496.585C187.521 499.534 188.517 500.265 183.331 498.602Z" fill="#182F67"/>
<path fill-rule="evenodd" clip-rule="evenodd" d="M213.942 539.092C215.716 545.344 219.247 557.229 219.095 560.755C218.301 565.988 214.077 566.187 200.85 567.584L211.712 586.963C205.377 592.75 208.384 596.409 202.218 597.717C196.052 599.025 196.643 610.245 193.873 611.043C191.068 611.819 188.129 600.91 184.345 601.42C184.547 593.593 185.341 585.987 186.152 577.872C187.2 567.052 182.351 576.32 180.375 573.172C179.192 571.331 186.152 566.653 181.963 563.77C181.439 563.415 178.533 553.504 182.554 551.752C184.328 550.976 183.939 554.103 185.73 553.327C187.537 552.551 183.652 548.316 188.433 549.89C194.413 554.324 196.086 554.901 198.299 552.817C200.461 550.688 213.942 539.092 213.942 539.092Z" fill="#182F67"/>
<path fill-rule="evenodd" clip-rule="evenodd" d="M12.7386 296.406C21.2868 302.925 15.6106 291.417 20.7969 297.16C24.125 300.885 23.5674 297.16 25.3581 297.67C27.1657 298.202 27.9597 300.552 28.9564 300.286C31.3722 299.665 28.5679 297.138 31.7608 296.361C34.9368 295.563 37.5046 302.659 43.468 301.883C43.0457 302.193 42.8768 303.013 42.9444 305.475C43.0795 312.26 41.2213 307.581 42.1504 311.883C38.7886 313.546 37.8256 313.013 34.43 309.865C31.0682 306.716 31.0682 312.082 27.9597 311.705C24.8513 311.328 23.7363 313.922 21.6246 315.94C19.5129 317.98 16.2863 317.781 13.6002 318.158C10.931 318.535 11.6406 319.82 11.9109 321.661C12.1981 323.501 9.08965 323.124 6.97796 323.324C4.86626 323.501 3.32894 321.661 0.642861 321.107C0.0684791 318.889 1.62266 315.186 0.930023 314.455C0.930023 314.455 1.84228 310.974 5.84606 308.357C13.0089 303.701 6.16699 303.213 12.7386 296.406Z" fill="#182F67"/>
<path fill-rule="evenodd" clip-rule="evenodd" d="M45.0053 319.266C44.6168 316.029 43.7889 317.98 42.7584 314.765C42.4206 313.701 42.3023 312.526 42.1333 311.905C41.2042 307.625 43.0625 312.304 42.9274 305.497C42.8598 303.035 43.0287 302.215 43.4511 301.905C44.3126 301.306 45.8331 303.235 45.7655 299.089C45.6641 292.969 46.154 297.381 49.3976 288.778C51.6782 282.769 54.2461 287.47 53.0298 283.568C51.5431 278.623 55.0401 283.701 54.3475 280.951C53.6549 278.202 48.6374 279.421 46.8974 269.111C54.6178 263.612 46.2385 270.84 56.4253 265.874C69.1631 259.665 74.9407 275.075 83.4212 269.2C91.9018 263.324 86.1243 273.767 91.2093 269.089C96.2605 264.388 93.1858 273.124 96.9868 266.783C100.163 261.461 98.2708 267.115 103.66 265.275C106.109 264.432 112.596 269.466 111.769 264.1C111.076 259.621 105.924 249.222 116.262 252.015C119.793 252.148 115.637 248.534 126.466 249.333C140.319 250.375 131.146 251.949 136.298 253.568C143.985 256.029 130.757 266.295 139.728 264.477C150.387 262.304 141.485 263.168 147.684 268.002C155.27 273.878 145.911 277.537 151.486 279.554C160.693 282.88 154.814 289 163.125 281.572C169.393 275.962 169.393 287.714 177.569 287.714C185.712 287.714 181.37 290.33 190.476 291.04C199.582 291.772 184.141 299.732 189.918 300.197C193.719 300.486 187.739 303.9 191.101 306.539C196.473 310.707 192.723 318.024 188.719 320.042C184.732 322.06 181.725 323.501 182.519 333.058C181.477 333.226 180.499 333.806 179.715 334.721C177.113 338.313 177.265 333.08 174.376 338.246C170.846 344.499 172.687 336.007 168.768 341.838C165.761 346.273 167.213 344.433 163.615 343.413C159.696 342.304 159.392 347.404 154.408 347.138C150.675 346.938 155.304 345.962 157.145 345.43C158.986 344.898 157.246 343.656 154.104 345.43C149.12 348.224 150.607 345.43 149.712 345.896C148.816 346.362 150.016 348.69 151.79 348.246C153.597 347.781 153.344 349.355 154.628 349.621C155.253 349.754 162.179 352.947 159.409 355.962C163.7 355.386 164.46 358.823 167.518 356.472C169.494 354.965 170.71 356.073 174.123 357.115C177.316 358.091 173.498 357.515 173.667 359.466C173.87 361.949 173.768 359.133 172.518 360.974C171.065 363.058 165.794 357.648 164.071 361.55C162.314 365.475 163.21 362.991 158.986 364.366C154.729 365.741 158.784 373.767 149.256 368.668C147.313 367.625 153.09 361.971 148.36 361.617C145.032 361.373 149.053 354.056 141.687 357.825C140.234 358.579 140.572 354.942 141.485 354.166C143.529 352.481 143.562 350.84 147.921 348.291C144.39 347.515 145.775 346.14 145.775 346.14C145.775 346.14 143.63 349.333 142.937 347.381C142.245 345.43 139.829 348.224 136.636 345.541C132.548 342.082 134.879 345.075 133.004 343.701C129.051 340.774 138.748 342.77 134.051 340.486C130.909 338.956 132.007 338.668 133.747 339.111C135.487 339.554 139.424 339.577 139.424 339.577C139.424 339.577 140.082 339 134.744 337.758C129.439 336.517 131.416 338.668 128.054 339C124.659 339.333 125.909 341.417 121.162 343.967C118.695 345.297 120.401 343.9 119.472 341.949C118.509 339.998 116.431 340.264 118.323 343.124C120.216 345.985 118.594 344.809 118.222 346.384C117.884 347.936 116.347 347.758 114.894 351.195C113.441 354.654 117.462 351.639 113.678 355.275C108.035 351.816 109.91 356.362 105.822 356.029C106.582 358.113 103.981 361.129 99.3519 355.342C101.801 356.583 99.8419 354.588 101.987 354.721C104.133 354.854 104.099 346.495 104.724 345.852C106.008 344.565 106.836 348.202 107.866 347.16C108.914 346.118 109.623 348.778 110.806 347.559C111.988 346.317 115.553 348.024 113.407 345.985C111.262 343.945 112.09 339.976 110.367 337.049C108.61 334.122 110.89 334.366 108.559 329.155C106.211 323.922 108.458 323.213 107.14 321.639C105.788 320.064 108.137 318.645 105.788 318.446C103.44 318.246 103.846 315.452 101.802 316.162C99.7574 316.871 100.551 313.368 98.5073 313.745C95.6692 314.277 94.4528 306.517 90.0605 312.88C88.6752 314.876 86.8845 314.942 85.5668 314.898C84.7391 314.854 84.2153 314.787 83.8098 315.098C82.8131 315.962 78.5053 310.929 75.5996 315.053C74.3832 316.805 68.4705 313.169 66.8825 316.805C66.2574 318.202 62.2706 314.455 60.5136 317.204C58.7567 319.953 59.6183 316.628 56.2227 317.98C52.8271 319.355 53.5872 316.228 52.2019 318.113C50.8166 319.998 48.9753 313.412 45.0053 319.266Z" fill="#182F67"/>
<path fill-rule="evenodd" clip-rule="evenodd" d="M604.756 300.045C604.131 300.755 603.067 300.533 601.614 300.533C602.408 306.874 584.72 292.373 591.478 319.003C592.795 324.103 582.929 327.872 577.388 325.411C567.793 321.109 570.665 328.338 571.189 347.961C573.959 355.522 564.397 349.557 558.974 353.216C553.535 356.875 555.055 362.617 556.829 361.442C558.67 360.223 569.398 377.008 567.083 381.487C562.59 390.178 572.422 391.154 567.252 396.83C567.252 403.26 560.258 396.52 559.144 403.371C558.518 407.03 556.93 404.923 550.967 412.24C547.2 416.83 550.376 409.89 543.213 413.283C536.016 416.675 541.996 426.609 534.04 420.6C526.049 414.591 532.063 423.992 526.674 420.6C522.248 417.828 518.497 427.118 519.308 441.487C520.035 454.103 529.867 435.522 527.857 448.804C526.775 455.81 531.843 455.101 533.229 460.023C534.411 464.236 533.651 466.498 532.57 467.784C530.627 470.023 527.451 469.691 529.833 472.839C530.492 473.704 531.016 474.281 531.421 474.657C534.056 477.296 531.32 469.779 543.399 478.582C552.335 485.101 551.355 485.101 550.561 487.983C546.929 501.11 560.039 491.975 562.708 495.034C568.874 502.085 571.053 486.143 586.393 521.664C580.395 530.533 586.984 527.407 592.373 544.369C598.184 562.706 583.065 545.833 589.771 556.897C594.35 564.458 590.565 562.374 594.552 572.817C598.151 582.219 605.01 578.494 607.087 582.219C610.483 588.227 615.264 585.079 619.859 593.438C620.588 594.888 621.558 596.101 622.697 596.986C626.397 599.602 630.181 596.387 633.847 600.489C639.422 606.764 637.31 595.412 646.618 605.456C659.153 619.026 660.083 611.509 662.752 618.516C665.725 626.365 667.938 615.123 671.688 625.833C673.04 629.647 678.26 619.514 694.123 629.203C693.853 622.707 694.191 622.174 697.35 621.642C700.543 621.132 700.391 619.558 700.357 634.037C703.094 619.27 704.969 620.09 711.152 619.292C717.335 618.494 720.122 620.866 721.913 623.46C722.471 624.259 723.197 624.369 724.261 624.059C726.609 623.35 730.394 620.356 736.594 616.919C745.53 611.953 741.374 610.134 746.122 607.008C750.902 603.882 750.902 611.443 760.278 606.232C772.357 599.491 760.667 611.709 769.063 609.624C763.877 619.558 769.266 612.507 772.239 614.835C775.212 617.163 775.837 614.99 777.256 613.904C778.709 612.817 780.99 612.817 787.646 619.27C796.819 628.139 790.839 631.554 794.809 627.363C798.796 623.194 795.839 638.072 801.6 653.993C805.959 666.033 799.489 658.959 799.184 660.245C796.802 670.711 791.329 669.691 793.407 678.25C795.096 685.168 791.531 679.137 790.602 684.259C789.014 693.394 795.586 692.862 795.383 695.744C795.181 698.627 788.423 698.095 788.812 702.551C789.082 705.412 789.234 704.569 795.383 702.551C799.37 701.243 803.56 697.851 800.57 704.636C796.769 713.283 801.718 709.226 801.6 712.729C801.178 721.088 806.719 713.727 806.55 716.654C806.347 720.312 811.77 717.696 810.385 719.603C809.067 721.487 804.185 730.489 802.394 733.372C800.586 736.232 803.391 738.583 814.608 736.587C817.075 749.447 826.13 744.081 827.312 748.782C828.106 751.931 834.678 754.259 832.684 745.634C830.691 737.008 826.704 736.498 826.704 731.532C826.704 728.294 829.998 727.186 833.309 726.476C835.032 726.099 836.739 725.878 837.955 725.478C841.486 724.414 842.212 731.775 844.392 729.957C845.709 728.871 841.621 724.747 844.628 721.354C847.601 717.962 846.605 728.139 851.588 724.747C856.572 721.354 854.156 729.181 857.957 725.013C861.758 720.844 864.917 728.671 862.738 719.802C862.045 716.964 866.725 715.39 870.104 713.283C875.476 709.891 868.718 720.844 880.071 722.152C887.47 722.995 888.653 725.279 883.669 728.937C878.685 732.596 880.662 731.798 882.875 734.946C885.054 738.095 883.264 739.403 886.237 737.03C888.906 734.946 889.97 743.949 895.9 742.729C896.744 742.529 897.567 742.194 898.35 741.731C902.81 739.181 898.738 737.031 900.732 735.722C902.742 734.414 903.333 744.591 909.314 738.583C907.337 743.283 910.108 743.793 913.503 740.135C914.686 742.751 913.115 743.527 911.493 746.41C909.905 749.27 912.912 756.077 914.5 757.629C914.466 757.585 914.534 765.589 920.075 762.308C924.062 759.98 925.261 756.831 924.264 752.64C923.268 748.45 921.071 752.64 921.848 749.514C922.626 746.388 918.673 747.718 917.862 746.122C915.48 741.421 926.038 743.239 920.142 736.166C922.524 736.166 926.241 743.239 927.44 738.028C928.403 733.838 931.427 737.518 934.434 733.328C937.408 729.159 947.763 729.935 945.195 723.416C947.763 724.968 950.179 726.543 949.976 714.015C954.724 726.033 952.358 713.239 955.348 718.982C958.322 724.724 959.707 709.58 961.515 715.057C963.289 720.534 966.701 710.09 971.246 711.399C975.824 712.707 973.256 707.474 978.442 706.964C983.628 706.454 978.831 704.614 981.618 702.795C986.433 699.647 980.267 695.811 984.811 695.234C989.001 694.702 985.808 688.96 988.612 687.917C994.052 685.877 987.615 678.516 993.798 680.334C999.964 682.175 992.379 676.166 996.366 669.381C1000.35 662.574 996.569 666.232 994.981 664.68C989.372 659.159 999.542 664.724 999.339 657.097C999.171 648.494 1002.35 652.396 1001.94 646.41C1000.56 624.48 1005.54 633.35 1003.75 627.075C1001.94 620.8 1010.32 621.576 1004.93 615.589C999.559 609.58 1008.11 617.141 1005.93 609.58C1004.17 603.549 1004.54 609.314 1000.94 608.272C1002.92 607.23 1003.75 606.964 1004.75 602.773C997.346 603.815 996.434 591.997 991.771 595.456C986.196 599.624 988.409 591.531 981.872 598.871C986.855 589.735 990.386 597.296 989.389 592.862C988.798 590.245 994.17 590.511 993.376 587.385C992.548 584.236 997.329 583.726 997.143 582.152C996.282 575.367 987.075 571.686 988.004 573.283C984.811 567.806 980.013 577.984 976.128 569.425C976.128 569.425 979.523 573.66 982.007 570.689C986.788 564.946 989.997 574.347 993.984 572.773C993.984 572.773 996.366 568.848 991.771 567.03C987.193 565.212 990.774 560.511 986.99 561.287C983.223 562.063 979.033 555.278 977.851 547.451C976.634 539.602 973.864 545.101 972.867 538.826C971.87 532.551 970.857 535.944 968.88 532.307C962.055 519.757 954.926 524.214 953.338 519.513C951.75 514.835 962.123 511.686 955.348 508.804C952.02 507.407 962.511 509.846 960.096 502.551C958.947 499.003 961.903 501.243 962.309 497.584C962.697 493.926 964.285 500.201 965.485 493.416C966.701 486.631 971.06 493.926 970.857 489.491C970.755 486.897 972.276 487.141 971.887 486.099C971.465 485.057 974.658 482.706 968.492 481.398C962.326 480.09 962.123 484.79 960.349 480.888C958.541 476.963 950.787 475.921 951.176 479.58C951.311 480.932 946.361 483.682 946.598 482.706C945.213 488.715 932.644 485.323 934.857 480.622C938.387 473.039 930.076 468.094 921.494 471.997C918.723 458.427 910.935 463.371 911.729 450.844C912.557 438.316 925.481 454.236 926.477 441.442C927.271 431.243 936.242 435.699 936.242 427.872C936.242 420.045 942.813 429.447 940.127 420.023C944.655 431.509 957.359 421.864 946.986 439.092C937.391 455.034 950.72 446.742 947.578 449.003C943.979 451.62 948.828 451.065 946.395 452.928C941.209 456.853 945.01 457.895 948.169 456.586C951.362 455.278 946.395 453.704 950.382 452.152C954.048 450.711 956.954 437.274 965.096 437.54C969.81 437.673 969.083 435.966 971.533 433.238C971.871 432.861 972.293 432.484 972.749 432.063C980.503 425.478 977.53 422.928 980.148 418.227C983.848 411.509 982.463 404.413 993.477 407.008C998.731 408.249 1003.11 405.323 999.458 402.573C993.883 398.405 1007.63 400.489 1004.64 395.256C1001.57 389.912 1007.25 392.64 1006.62 386.631C1006.28 383.238 1013.75 398.826 1014.83 391.043C1014.83 391.043 1011.86 387.274 1010.3 377.008C1008.26 363.615 995.522 362.462 1001.5 356.83C1015.86 343.26 1006.06 342.883 1011.47 337.495C1023.02 326.01 1003.68 326.01 1009.56 316.608C1015.44 307.207 1003.88 295.211 996.333 302.506C988.747 309.823 984.186 315.566 970.333 301.996C956.481 288.427 946.023 294.546 928.369 270.333C910.682 246.12 895.545 238.426 878.415 238.36C861.285 238.293 869.732 242.484 858.346 243.504C846.926 244.546 849.307 252.595 857.298 251.597C867.654 250.289 861.133 259.158 858.954 267.517C856.741 275.854 860.576 298.959 837.837 290.045C834.145 288.551 830.427 287.168 826.687 285.899C811.179 297.917 828.562 297.806 819.558 305.367C814.186 309.89 813.426 317.007 827.971 312.684C850.237 306.054 842.06 321.22 852.821 307.651C860.153 298.449 862.062 303.282 876.574 314.968C883.737 320.688 881.355 330.178 876.152 329.713C869.124 329.114 875.189 332.063 868.431 332.329C859.849 332.662 864.039 330.954 859.562 339.713C853.362 351.819 850.186 339.979 847.939 350.023C844.476 365.699 837.55 347.429 835.438 355.899C834.053 361.553 835.776 362.307 842.128 364.125C848.497 365.965 845.101 383.194 838.327 382.573C834.238 382.196 836.739 393.903 824.575 392.462C798.998 389.447 805.08 406.919 780.061 399.048C753.369 390.644 766.833 387.074 755.278 386.764C747.98 386.564 745.513 381.73 739.009 385.456C732.708 389.07 727.1 383.083 721.778 385.056C716 387.207 715.409 380.932 708.837 389.558C703.989 395.899 708.449 379.513 703.786 375.921C699.174 372.329 702.57 365.943 699.462 366.852C696.387 367.761 699.039 357.961 696.286 363.194C693.177 369.07 676.655 357.584 676.486 357.451C669.391 351.974 665.201 355.744 652.92 357.318C640.672 358.87 652.852 355.832 648.493 348.183C644.861 341.775 651.433 342.684 645.757 337.872C636.786 330.245 641.922 321.619 634.607 317.894C628.931 315.034 631.499 315.145 630.316 313.659C624.843 306.786 625.434 321.442 619.234 312.418C613 303.415 609.672 310.843 605.043 300.799L604.756 300.045Z" fill="#182F67"/>
<path fill-rule="evenodd" clip-rule="evenodd" d="M472.227 468.692C479.119 466.873 474.102 475.632 479.711 472.106C484.289 469.224 486.502 473.658 489.272 471.574C492.077 469.49 487.093 468.182 490.269 465.055C493.462 461.929 491.688 466.097 494.07 463.747C496.486 461.397 492.55 461.773 496.283 457.228C499.459 453.326 504.426 456.053 503.041 459.844C500.034 467.938 505.017 458.004 505.017 464.811C505.017 467.96 508.21 473.437 510.592 477.605C513.008 481.774 511.589 479.157 516.961 475.521C522.333 471.884 520.762 470.022 523.364 469.778C525.931 469.512 521.742 473.17 524.158 472.904C526.54 472.638 526.573 469.157 533.331 469.667C534.446 468.292 535.172 466.164 533.99 461.907C532.604 456.984 527.519 457.694 528.618 450.687C530.628 437.405 520.796 455.986 520.069 443.37C508.852 447.804 498.462 448.071 495.878 444.944C493.276 441.818 490.472 449.135 487.701 444.944C486.012 442.439 477.346 446.252 476.94 443.392C476.535 440.532 484.491 436.607 486.907 439.734C489.289 442.86 491.367 439.844 491.164 435.122C484.694 432.616 490.708 431.108 490.708 431.108L488.901 428.226C487.127 425.365 481.535 437.095 477.954 431.108C477.362 433.193 478.545 434.235 471.973 438.137C478.731 436.829 475.96 442.306 468.78 443.104C461.618 443.88 464.202 451.441 468.392 451.441C476.568 451.441 468.595 454.589 473.375 455.099C478.156 455.609 472.041 460.621 472.227 468.692Z" fill="#2D56BB"/>
</svg>
